<svg width="12" height="9" viewBox="0 0 12 9" fill="none" xmlns="http://www.w3.org/2000/svg">
<path d="M0.620771 4.58519C0.45974 4.29073 0.459743 3.93489 0.620778 3.64044C1.64407 1.76933 3.63316 0.5 5.91926 0.5C8.2054 0.5 10.1945 1.76937 11.2178 3.64052C11.3788 3.93498 11.3788 4.29082 11.2178 4.58527C10.1945 6.45638 8.2054 7.72571 5.9193 7.72571C3.63316 7.72571 1.64405 6.45634 0.620771 4.58519Z" stroke="#2E2E48"/>
<path d="M4.11279 4.11282C4.11279 5.11049 4.92156 5.91925 5.91922 5.91925C6.91688 5.91925 7.72565 5.11049 7.72565 4.11282C7.72565 3.11516 6.91688 2.3064 5.91922 2.3064" stroke="#2E2E48" stroke-linecap="round"/>
</svg>
