<svg width="11" height="11" viewBox="0 0 11 11" fill="none" xmlns="http://www.w3.org/2000/svg">
<circle cx="1.50001" cy="1.50001" r="1.50001" transform="matrix(-1 0 0 1 6.74316 3.99982)" stroke="#2B3F6C"/>
<path d="M8.11948 2.16494C8.27721 2.17791 8.43517 2.16566 8.58742 2.12976C8.75146 2.09108 8.93215 2.12039 9.04181 2.24836C9.44239 2.71586 9.75817 3.25818 9.96528 3.85146C10.0279 4.03087 9.93687 4.22095 9.79022 4.34178C9.45631 4.6169 9.24342 5.0336 9.24342 5.50003C9.24342 5.96645 9.45631 6.38315 9.79022 6.65827C9.93687 6.77911 10.0279 6.96918 9.96528 7.14859C9.75819 7.74181 9.44246 8.28407 9.04194 8.75154C8.93227 8.87953 8.75155 8.90883 8.5875 8.87014C8.22862 8.7855 7.83798 8.8322 7.49345 9.03112C7.1185 9.24759 6.87237 9.60149 6.78195 9.99246C6.74392 10.1569 6.63743 10.3061 6.47383 10.3475C6.08021 10.4471 5.66799 10.5001 5.24341 10.5001C4.81884 10.5001 4.40664 10.4471 4.01303 10.3475C3.84944 10.3061 3.74294 10.1569 3.70492 9.99247C3.67827 9.87725 3.6381 9.76525 3.58509 9.65904M6.9215 1.37895C6.85868 1.2616 6.81186 1.1366 6.782 1.00756C6.74396 0.843169 6.63748 0.693938 6.4739 0.652543C6.08026 0.552927 5.66801 0.5 5.24341 0.5C4.81883 0.5 4.40661 0.552919 4.01299 0.652522C3.84942 0.693915 3.74293 0.843151 3.70489 1.00754C3.61444 1.39846 3.36832 1.75231 2.99342 1.96876C2.6489 2.16766 2.25829 2.21437 1.89942 2.12975C1.73538 2.09107 1.55468 2.12037 1.44502 2.24835C1.04443 2.71585 0.728654 3.25816 0.521534 3.85145C0.458901 4.03086 0.549943 4.22094 0.696602 4.34178C1.03051 4.61689 1.2434 5.0336 1.2434 5.50003C1.2434 5.96645 1.03051 6.38316 0.696602 6.65827C0.549942 6.77911 0.458901 6.96919 0.521533 7.1486C0.72863 7.74182 1.04436 8.28408 1.44489 8.75155C1.55455 8.87954 1.73528 8.90884 1.89933 8.87015C2.06904 8.83012 2.24586 8.81946 2.42154 8.84038" stroke="#2B3F6C" stroke-linecap="round"/>
</svg>
