<svg width="12" height="13" viewBox="0 0 12 13" fill="none" xmlns="http://www.w3.org/2000/svg">
<path d="M1.65493 2.7228C1.841 2.51875 1.82643 2.20251 1.62238 2.01644C1.41834 1.83037 1.10209 1.84495 0.916024 2.04899L1.28548 2.3859L1.65493 2.7228ZM3.51071 1.4032V1.9032C3.51439 1.9032 3.51806 1.9032 3.52172 1.9032C3.52539 1.9032 3.52906 1.9032 3.53272 1.9032C3.53638 1.9032 3.54004 1.9032 3.54369 1.9032C3.54735 1.9032 3.551 1.9032 3.55465 1.9032C3.5583 1.9032 3.56195 1.9032 3.56559 1.9032C3.56923 1.9032 3.57287 1.9032 3.57651 1.9032C3.58015 1.9032 3.58378 1.9032 3.58741 1.9032C3.59104 1.9032 3.59467 1.9032 3.59829 1.9032C3.60192 1.9032 3.60554 1.9032 3.60916 1.9032C3.61278 1.9032 3.61639 1.9032 3.62 1.9032C3.62362 1.9032 3.62723 1.9032 3.63083 1.9032C3.63444 1.9032 3.63804 1.9032 3.64164 1.9032C3.64524 1.9032 3.64884 1.9032 3.65243 1.9032C3.65603 1.9032 3.65962 1.9032 3.66321 1.9032C3.6668 1.9032 3.67038 1.9032 3.67397 1.9032C3.67755 1.9032 3.68113 1.9032 3.6847 1.9032C3.68828 1.9032 3.69185 1.9032 3.69542 1.9032C3.69899 1.9032 3.70256 1.9032 3.70613 1.9032C3.70969 1.9032 3.71325 1.9032 3.71681 1.9032C3.72037 1.9032 3.72393 1.9032 3.72748 1.9032C3.73103 1.9032 3.73458 1.9032 3.73813 1.9032C3.74168 1.9032 3.74522 1.9032 3.74876 1.9032C3.75231 1.9032 3.75584 1.9032 3.75938 1.9032C3.76292 1.9032 3.76645 1.9032 3.76998 1.9032C3.77351 1.9032 3.77704 1.9032 3.78056 1.9032C3.78408 1.9032 3.78761 1.9032 3.79112 1.9032C3.79464 1.9032 3.79816 1.9032 3.80167 1.9032C3.80518 1.9032 3.80869 1.9032 3.8122 1.9032C3.81571 1.9032 3.81921 1.9032 3.82272 1.9032C3.82622 1.9032 3.82972 1.9032 3.83321 1.9032C3.83671 1.9032 3.8402 1.9032 3.84369 1.9032C3.84718 1.9032 3.85067 1.9032 3.85416 1.9032C3.85764 1.9032 3.86112 1.9032 3.8646 1.9032C3.86808 1.9032 3.87156 1.9032 3.87503 1.9032C3.87851 1.9032 3.88198 1.9032 3.88545 1.9032C3.88892 1.9032 3.89238 1.9032 3.89585 1.9032C3.89931 1.9032 3.90277 1.9032 3.90623 1.9032C3.90968 1.9032 3.91314 1.9032 3.91659 1.9032C3.92004 1.9032 3.92349 1.9032 3.92694 1.9032C3.93039 1.9032 3.93383 1.9032 3.93727 1.9032C3.94072 1.9032 3.94415 1.9032 3.94759 1.9032C3.95103 1.9032 3.95446 1.9032 3.95789 1.9032C3.96132 1.9032 3.96475 1.9032 3.96818 1.9032C3.9716 1.9032 3.97503 1.9032 3.97845 1.9032C3.98187 1.9032 3.98529 1.9032 3.9887 1.9032C3.99212 1.9032 3.99553 1.9032 3.99894 1.9032C4.00235 1.9032 4.00576 1.9032 4.00916 1.9032C4.01257 1.9032 4.01597 1.9032 4.01937 1.9032C4.02277 1.9032 4.02617 1.9032 4.02956 1.9032C4.03296 1.9032 4.03635 1.9032 4.03974 1.9032C4.04313 1.9032 4.04652 1.9032 4.0499 1.9032C4.05329 1.9032 4.05667 1.9032 4.06005 1.9032C4.06343 1.9032 4.0668 1.9032 4.07018 1.9032C4.07355 1.9032 4.07693 1.9032 4.0803 1.9032C4.08367 1.9032 4.08703 1.9032 4.0904 1.9032C4.09376 1.9032 4.09712 1.9032 4.10048 1.9032C4.10384 1.9032 4.1072 1.9032 4.11056 1.9032C4.11391 1.9032 4.11726 1.9032 4.12061 1.9032C4.12396 1.9032 4.12731 1.9032 4.13066 1.9032C4.134 1.9032 4.13734 1.9032 4.14068 1.9032C4.14402 1.9032 4.14736 1.9032 4.1507 1.9032C4.15403 1.9032 4.15737 1.9032 4.1607 1.9032C4.16403 1.9032 4.16736 1.9032 4.17068 1.9032C4.17401 1.9032 4.17733 1.9032 4.18065 1.9032C4.18397 1.9032 4.18729 1.9032 4.19061 1.9032C4.19392 1.9032 4.19724 1.9032 4.20055 1.9032C4.20386 1.9032 4.20717 1.9032 4.21048 1.9032C4.21378 1.9032 4.21709 1.9032 4.22039 1.9032C4.22369 1.9032 4.22699 1.9032 4.23029 1.9032C4.23359 1.9032 4.23689 1.9032 4.24018 1.9032C4.24347 1.9032 4.24676 1.9032 4.25005 1.9032C4.25334 1.9032 4.25663 1.9032 4.25991 1.9032C4.26319 1.9032 4.26648 1.9032 4.26976 1.9032C4.27304 1.9032 4.27631 1.9032 4.27959 1.9032C4.28286 1.9032 4.28614 1.9032 4.28941 1.9032C4.29268 1.9032 4.29595 1.9032 4.29921 1.9032C4.30248 1.9032 4.30574 1.9032 4.309 1.9032C4.31226 1.9032 4.31552 1.9032 4.31878 1.9032C4.32204 1.9032 4.32529 1.9032 4.32855 1.9032C4.3318 1.9032 4.33505 1.9032 4.3383 1.9032C4.34155 1.9032 4.34479 1.9032 4.34804 1.9032C4.35128 1.9032 4.35453 1.9032 4.35777 1.9032C4.36101 1.9032 4.36424 1.9032 4.36748 1.9032C4.37071 1.9032 4.37395 1.9032 4.37718 1.9032C4.38041 1.9032 4.38364 1.9032 4.38687 1.9032C4.39009 1.9032 4.39332 1.9032 4.39654 1.9032C4.39977 1.9032 4.40299 1.9032 4.40621 1.9032C4.40942 1.9032 4.41264 1.9032 4.41586 1.9032C4.41907 1.9032 4.42228 1.9032 4.42549 1.9032C4.4287 1.9032 4.43191 1.9032 4.43512 1.9032C4.43833 1.9032 4.44153 1.9032 4.44473 1.9032C4.44794 1.9032 4.45114 1.9032 4.45433 1.9032C4.45753 1.9032 4.46073 1.9032 4.46392 1.9032C4.46712 1.9032 4.47031 1.9032 4.4735 1.9032C4.47669 1.9032 4.47988 1.9032 4.48307 1.9032C4.48625 1.9032 4.48944 1.9032 4.49262 1.9032C4.4958 1.9032 4.49898 1.9032 4.50216 1.9032C4.50534 1.9032 4.50851 1.9032 4.51169 1.9032C4.51486 1.9032 4.51804 1.9032 4.52121 1.9032C4.52438 1.9032 4.52755 1.9032 4.53071 1.9032C4.53388 1.9032 4.53705 1.9032 4.54021 1.9032C4.54337 1.9032 4.54653 1.9032 4.54969 1.9032C4.55285 1.9032 4.55601 1.9032 4.55916 1.9032C4.56232 1.9032 4.56547 1.9032 4.56862 1.9032C4.57178 1.9032 4.57493 1.9032 4.57807 1.9032C4.58122 1.9032 4.58437 1.9032 4.58751 1.9032C4.59066 1.9032 4.5938 1.9032 4.59694 1.9032C4.60008 1.9032 4.60322 1.9032 4.60635 1.9032C4.60949 1.9032 4.61263 1.9032 4.61576 1.9032C4.61889 1.9032 4.62203 1.9032 4.62515 1.9032C4.62828 1.9032 4.63141 1.9032 4.63454 1.9032C4.63766 1.9032 4.64079 1.9032 4.64391 1.9032C4.64703 1.9032 4.65015 1.9032 4.65327 1.9032C4.65639 1.9032 4.65951 1.9032 4.66262 1.9032C4.66574 1.9032 4.66885 1.9032 4.67197 1.9032C4.67508 1.9032 4.67819 1.9032 4.6813 1.9032C4.6844 1.9032 4.68751 1.9032 4.69062 1.9032C4.69372 1.9032 4.69683 1.9032 4.69993 1.9032C4.70303 1.9032 4.70613 1.9032 4.70923 1.9032C4.71233 1.9032 4.71542 1.9032 4.71852 1.9032C4.72161 1.9032 4.7247 1.9032 4.7278 1.9032C4.73089 1.9032 4.73398 1.9032 4.73707 1.9032C4.74015 1.9032 4.74324 1.9032 4.74633 1.9032C4.74941 1.9032 4.75249 1.9032 4.75558 1.9032C4.75866 1.9032 4.76174 1.9032 4.76482 1.9032C4.76789 1.9032 4.77097 1.9032 4.77405 1.9032C4.77712 1.9032 4.7802 1.9032 4.78327 1.9032C4.78634 1.9032 4.78941 1.9032 4.79248 1.9032C4.79555 1.9032 4.79861 1.9032 4.80168 1.9032C4.80475 1.9032 4.80781 1.9032 4.81087 1.9032C4.81394 1.9032 4.817 1.9032 4.82006 1.9032C4.82312 1.9032 4.82617 1.9032 4.82923 1.9032C4.83229 1.9032 4.83534 1.9032 4.8384 1.9032C4.84145 1.9032 4.8445 1.9032 4.84755 1.9032C4.8506 1.9032 4.85365 1.9032 4.8567 1.9032C4.85975 1.9032 4.86279 1.9032 4.86584 1.9032C4.86888 1.9032 4.87192 1.9032 4.87497 1.9032C4.87801 1.9032 4.88105 1.9032 4.88409 1.9032C4.88712 1.9032 4.89016 1.9032 4.8932 1.9032C4.89623 1.9032 4.89927 1.9032 4.9023 1.9032C4.90533 1.9032 4.90836 1.9032 4.91139 1.9032C4.91442 1.9032 4.91745 1.9032 4.92048 1.9032C4.92351 1.9032 4.92653 1.9032 4.92956 1.9032C4.93258 1.9032 4.9356 1.9032 4.93863 1.9032C4.94165 1.9032 4.94467 1.9032 4.94769 1.9032C4.95071 1.9032 4.95372 1.9032 4.95674 1.9032C4.95975 1.9032 4.96277 1.9032 4.96578 1.9032C4.9688 1.9032 4.97181 1.9032 4.97482 1.9032C4.97783 1.9032 4.98084 1.9032 4.98385 1.9032C4.98686 1.9032 4.98986 1.9032 4.99287 1.9032C4.99587 1.9032 4.99888 1.9032 5.00188 1.9032C5.00488 1.9032 5.00789 1.9032 5.01089 1.9032C5.01389 1.9032 5.01689 1.9032 5.01988 1.9032C5.02288 1.9032 5.02588 1.9032 5.02887 1.9032C5.03187 1.9032 5.03486 1.9032 5.03785 1.9032C5.04085 1.9032 5.04384 1.9032 5.04683 1.9032C5.04982 1.9032 5.05281 1.9032 5.0558 1.9032C5.05878 1.9032 5.06177 1.9032 5.06476 1.9032C5.06774 1.9032 5.07073 1.9032 5.07371 1.9032C5.07669 1.9032 5.07967 1.9032 5.08265 1.9032C5.08563 1.9032 5.08861 1.9032 5.09159 1.9032C5.09457 1.9032 5.09755 1.9032 5.10052 1.9032C5.1035 1.9032 5.10647 1.9032 5.10945 1.9032C5.11242 1.9032 5.11539 1.9032 5.11837 1.9032C5.12134 1.9032 5.12431 1.9032 5.12728 1.9032C5.13025 1.9032 5.13321 1.9032 5.13618 1.9032C5.13915 1.9032 5.14211 1.9032 5.14508 1.9032C5.14804 1.9032 5.15101 1.9032 5.15397 1.9032C5.15693 1.9032 5.15989 1.9032 5.16285 1.9032C5.16581 1.9032 5.16877 1.9032 5.17173 1.9032C5.17469 1.9032 5.17765 1.9032 5.1806 1.9032C5.18356 1.9032 5.18651 1.9032 5.18947 1.9032C5.19242 1.9032 5.19537 1.9032 5.19833 1.9032C5.20128 1.9032 5.20423 1.9032 5.20718 1.9032C5.21013 1.9032 5.21308 1.9032 5.21603 1.9032C5.21897 1.9032 5.22192 1.9032 5.22487 1.9032C5.22781 1.9032 5.23076 1.9032 5.2337 1.9032C5.23664 1.9032 5.23959 1.9032 5.24253 1.9032C5.24547 1.9032 5.24841 1.9032 5.25135 1.9032C5.25429 1.9032 5.25723 1.9032 5.26017 1.9032C5.26311 1.9032 5.26605 1.9032 5.26898 1.9032C5.27192 1.9032 5.27485 1.9032 5.27779 1.9032C5.28072 1.9032 5.28366 1.9032 5.28659 1.9032C5.28952 1.9032 5.29245 1.9032 5.29539 1.9032C5.29832 1.9032 5.30125 1.9032 5.30418 1.9032C5.30711 1.9032 5.31003 1.9032 5.31296 1.9032C5.31589 1.9032 5.31882 1.9032 5.32174 1.9032C5.32467 1.9032 5.32759 1.9032 5.33052 1.9032C5.33344 1.9032 5.33636 1.9032 5.33929 1.9032C5.34221 1.9032 5.34513 1.9032 5.34805 1.9032C5.35097 1.9032 5.35389 1.9032 5.35681 1.9032C5.35973 1.9032 5.36265 1.9032 5.36556 1.9032C5.36848 1.9032 5.3714 1.9032 5.37432 1.9032C5.37723 1.9032 5.38015 1.9032 5.38306 1.9032C5.38598 1.9032 5.38889 1.9032 5.3918 1.9032C5.39471 1.9032 5.39763 1.9032 5.40054 1.9032C5.40345 1.9032 5.40636 1.9032 5.40927 1.9032C5.41218 1.9032 5.41509 1.9032 5.418 1.9032C5.42091 1.9032 5.42381 1.9032 5.42672 1.9032C5.42963 1.9032 5.43254 1.9032 5.43544 1.9032C5.43835 1.9032 5.44125 1.9032 5.44416 1.9032C5.44706 1.9032 5.44996 1.9032 5.45287 1.9032C5.45577 1.9032 5.45867 1.9032 5.46157 1.9032C5.46448 1.9032 5.46738 1.9032 5.47028 1.9032C5.47318 1.9032 5.47608 1.9032 5.47898 1.9032C5.48188 1.9032 5.48478 1.9032 5.48767 1.9032C5.49057 1.9032 5.49347 1.9032 5.49636 1.9032C5.49926 1.9032 5.50216 1.9032 5.50505 1.9032C5.50795 1.9032 5.51084 1.9032 5.51374 1.9032C5.51663 1.9032 5.51953 1.9032 5.52242 1.9032C5.52531 1.9032 5.5282 1.9032 5.5311 1.9032C5.53399 1.9032 5.53688 1.9032 5.53977 1.9032C5.54266 1.9032 5.54555 1.9032 5.54844 1.9032C5.55133 1.9032 5.55422 1.9032 5.55711 1.9032C5.56 1.9032 5.56289 1.9032 5.56578 1.9032C5.56866 1.9032 5.57155 1.9032 5.57444 1.9032C5.57732 1.9032 5.58021 1.9032 5.5831 1.9032C5.58598 1.9032 5.58887 1.9032 5.59175 1.9032C5.59464 1.9032 5.59752 1.9032 5.60041 1.9032C5.60329 1.9032 5.60617 1.9032 5.60906 1.9032C5.61194 1.9032 5.61482 1.9032 5.6177 1.9032C5.62059 1.9032 5.62347 1.9032 5.62635 1.9032C5.62923 1.9032 5.63211 1.9032 5.63499 1.9032C5.63787 1.9032 5.64075 1.9032 5.64363 1.9032C5.64651 1.9032 5.64939 1.9032 5.65227 1.9032C5.65515 1.9032 5.65803 1.9032 5.66091 1.9032C5.66378 1.9032 5.66666 1.9032 5.66954 1.9032C5.67242 1.9032 5.67529 1.9032 5.67817 1.9032C5.68105 1.9032 5.68392 1.9032 5.6868 1.9032C5.68968 1.9032 5.69255 1.9032 5.69543 1.9032C5.6983 1.9032 5.70118 1.9032 5.70405 1.9032C5.70693 1.9032 5.7098 1.9032 5.71268 1.9032C5.71555 1.9032 5.71843 1.9032 5.7213 1.9032C5.72417 1.9032 5.72705 1.9032 5.72992 1.9032C5.73279 1.9032 5.73566 1.9032 5.73854 1.9032C5.74141 1.9032 5.74428 1.9032 5.74715 1.9032C5.75003 1.9032 5.7529 1.9032 5.75577 1.9032C5.75864 1.9032 5.76151 1.9032 5.76438 1.9032C5.76725 1.9032 5.77013 1.9032 5.773 1.9032C5.77587 1.9032 5.77874 1.9032 5.78161 1.9032C5.78448 1.9032 5.78735 1.9032 5.79022 1.9032C5.79309 1.9032 5.79596 1.9032 5.79883 1.9032C5.8017 1.9032 5.80457 1.9032 5.80744 1.9032C5.8103 1.9032 5.81317 1.9032 5.81604 1.9032C5.81891 1.9032 5.82178 1.9032 5.82465 1.9032C5.82752 1.9032 5.83039 1.9032 5.83325 1.9032C5.83612 1.9032 5.83899 1.9032 5.84186 1.9032C5.84473 1.9032 5.84759 1.9032 5.85046 1.9032C5.85333 1.9032 5.8562 1.9032 5.85907 1.9032C5.86193 1.9032 5.8648 1.9032 5.86767 1.9032C5.87054 1.9032 5.8734 1.9032 5.87627 1.9032C5.87914 1.9032 5.88201 1.9032 5.88487 1.9032C5.88774 1.9032 5.89061 1.9032 5.89348 1.9032C5.89634 1.9032 5.89921 1.9032 5.90208 1.9032C5.90494 1.9032 5.90781 1.9032 5.91068 1.9032C5.91355 1.9032 5.91641 1.9032 5.91928 1.9032C5.92215 1.9032 5.92501 1.9032 5.92788 1.9032C5.93075 1.9032 5.93362 1.9032 5.93648 1.9032C5.93935 1.9032 5.94222 1.9032 5.94508 1.9032C5.94795 1.9032 5.95082 1.9032 5.95369 1.9032C5.95655 1.9032 5.95942 1.9032 5.96229 1.9032C5.96516 1.9032 5.96802 1.9032 5.97089 1.9032C5.97376 1.9032 5.97663 1.9032 5.97949 1.9032C5.98236 1.9032 5.98523 1.9032 5.9881 1.9032C5.99096 1.9032 5.99383 1.9032 5.9967 1.9032C5.99957 1.9032 6.00244 1.9032 6.00531 1.9032C6.00817 1.9032 6.01104 1.9032 6.01391 1.9032C6.01678 1.9032 6.01965 1.9032 6.02252 1.9032C6.02539 1.9032 6.02826 1.9032 6.03112 1.9032C6.03399 1.9032 6.03686 1.9032 6.03973 1.9032C6.0426 1.9032 6.04547 1.9032 6.04834 1.9032C6.05121 1.9032 6.05408 1.9032 6.05695 1.9032C6.05982 1.9032 6.06269 1.9032 6.06556 1.9032C6.06843 1.9032 6.0713 1.9032 6.07418 1.9032C6.07705 1.9032 6.07992 1.9032 6.08279 1.9032C6.08566 1.9032 6.08853 1.9032 6.09141 1.9032C6.09428 1.9032 6.09715 1.9032 6.10002 1.9032C6.10289 1.9032 6.10577 1.9032 6.10864 1.9032C6.11151 1.9032 6.11439 1.9032 6.11726 1.9032C6.12013 1.9032 6.12301 1.9032 6.12588 1.9032C6.12876 1.9032 6.13163 1.9032 6.13451 1.9032C6.13738 1.9032 6.14026 1.9032 6.14313 1.9032C6.14601 1.9032 6.14888 1.9032 6.15176 1.9032C6.15463 1.9032 6.15751 1.9032 6.16039 1.9032C6.16326 1.9032 6.16614 1.9032 6.16902 1.9032C6.1719 1.9032 6.17477 1.9032 6.17765 1.9032C6.18053 1.9032 6.18341 1.9032 6.18629 1.9032C6.18917 1.9032 6.19205 1.9032 6.19493 1.9032C6.19781 1.9032 6.20069 1.9032 6.20357 1.9032C6.20645 1.9032 6.20933 1.9032 6.21221 1.9032C6.21509 1.9032 6.21797 1.9032 6.22086 1.9032C6.22374 1.9032 6.22662 1.9032 6.2295 1.9032C6.23239 1.9032 6.23527 1.9032 6.23815 1.9032C6.24104 1.9032 6.24392 1.9032 6.24681 1.9032C6.24969 1.9032 6.25258 1.9032 6.25546 1.9032C6.25835 1.9032 6.26124 1.9032 6.26412 1.9032C6.26701 1.9032 6.2699 1.9032 6.27278 1.9032C6.27567 1.9032 6.27856 1.9032 6.28145 1.9032C6.28434 1.9032 6.28723 1.9032 6.29012 1.9032C6.29301 1.9032 6.2959 1.9032 6.29879 1.9032C6.30168 1.9032 6.30457 1.9032 6.30746 1.9032C6.31036 1.9032 6.31325 1.9032 6.31614 1.9032C6.31903 1.9032 6.32193 1.9032 6.32482 1.9032C6.32772 1.9032 6.33061 1.9032 6.33351 1.9032C6.3364 1.9032 6.3393 1.9032 6.3422 1.9032C6.34509 1.9032 6.34799 1.9032 6.35089 1.9032C6.35379 1.9032 6.35668 1.9032 6.35958 1.9032C6.36248 1.9032 6.36538 1.9032 6.36828 1.9032C6.37118 1.9032 6.37408 1.9032 6.37699 1.9032C6.37989 1.9032 6.38279 1.9032 6.38569 1.9032C6.3886 1.9032 6.3915 1.9032 6.3944 1.9032C6.39731 1.9032 6.40021 1.9032 6.40312 1.9032C6.40602 1.9032 6.40893 1.9032 6.41184 1.9032C6.41474 1.9032 6.41765 1.9032 6.42056 1.9032C6.42347 1.9032 6.42638 1.9032 6.42929 1.9032C6.4322 1.9032 6.43511 1.9032 6.43802 1.9032C6.44093 1.9032 6.44384 1.9032 6.44676 1.9032C6.44967 1.9032 6.45258 1.9032 6.4555 1.9032C6.45841 1.9032 6.46133 1.9032 6.46424 1.9032C6.46716 1.9032 6.47008 1.9032 6.47299 1.9032C6.47591 1.9032 6.47883 1.9032 6.48175 1.9032C6.48467 1.9032 6.48759 1.9032 6.49051 1.9032C6.49343 1.9032 6.49635 1.9032 6.49927 1.9032C6.5022 1.9032 6.50512 1.9032 6.50804 1.9032C6.51097 1.9032 6.51389 1.9032 6.51682 1.9032C6.51974 1.9032 6.52267 1.9032 6.5256 1.9032C6.52853 1.9032 6.53145 1.9032 6.53438 1.9032C6.53731 1.9032 6.54024 1.9032 6.54317 1.9032C6.5461 1.9032 6.54904 1.9032 6.55197 1.9032C6.5549 1.9032 6.55784 1.9032 6.56077 1.9032C6.5637 1.9032 6.56664 1.9032 6.56958 1.9032C6.57251 1.9032 6.57545 1.9032 6.57839 1.9032C6.58133 1.9032 6.58427 1.9032 6.58721 1.9032C6.59015 1.9032 6.59309 1.9032 6.59603 1.9032C6.59897 1.9032 6.60191 1.9032 6.60486 1.9032C6.6078 1.9032 6.61075 1.9032 6.61369 1.9032C6.61664 1.9032 6.61959 1.9032 6.62253 1.9032C6.62548 1.9032 6.62843 1.9032 6.63138 1.9032C6.63433 1.9032 6.63728 1.9032 6.64023 1.9032C6.64319 1.9032 6.64614 1.9032 6.64909 1.9032C6.65205 1.9032 6.655 1.9032 6.65796 1.9032C6.66091 1.9032 6.66387 1.9032 6.66683 1.9032C6.66979 1.9032 6.67275 1.9032 6.67571 1.9032C6.67867 1.9032 6.68163 1.9032 6.68459 1.9032C6.68755 1.9032 6.69052 1.9032 6.69348 1.9032C6.69645 1.9032 6.69941 1.9032 6.70238 1.9032C6.70535 1.9032 6.70831 1.9032 6.71128 1.9032C6.71425 1.9032 6.71722 1.9032 6.72019 1.9032C6.72317 1.9032 6.72614 1.9032 6.72911 1.9032C6.73209 1.9032 6.73506 1.9032 6.73804 1.9032C6.74101 1.9032 6.74399 1.9032 6.74697 1.9032C6.74995 1.9032 6.75293 1.9032 6.75591 1.9032C6.75889 1.9032 6.76187 1.9032 6.76485 1.9032C6.76783 1.9032 6.77082 1.9032 6.7738 1.9032C6.77679 1.9032 6.77978 1.9032 6.78276 1.9032C6.78575 1.9032 6.78874 1.9032 6.79173 1.9032C6.79472 1.9032 6.79771 1.9032 6.80071 1.9032C6.8037 1.9032 6.80669 1.9032 6.80969 1.9032C6.81268 1.9032 6.81568 1.9032 6.81868 1.9032C6.82167 1.9032 6.82467 1.9032 6.82767 1.9032C6.83067 1.9032 6.83368 1.9032 6.83668 1.9032C6.83968 1.9032 6.84269 1.9032 6.84569 1.9032C6.8487 1.9032 6.8517 1.9032 6.85471 1.9032C6.85772 1.9032 6.86073 1.9032 6.86374 1.9032C6.86675 1.9032 6.86976 1.9032 6.87278 1.9032C6.87579 1.9032 6.8788 1.9032 6.88182 1.9032C6.88484 1.9032 6.88785 1.9032 6.89087 1.9032C6.89389 1.9032 6.89691 1.9032 6.89993 1.9032C6.90296 1.9032 6.90598 1.9032 6.909 1.9032C6.91203 1.9032 6.91505 1.9032 6.91808 1.9032C6.92111 1.9032 6.92414 1.9032 6.92717 1.9032C6.9302 1.9032 6.93323 1.9032 6.93626 1.9032C6.93929 1.9032 6.94233 1.9032 6.94536 1.9032C6.9484 1.9032 6.95144 1.9032 6.95447 1.9032C6.95751 1.9032 6.96055 1.9032 6.96359 1.9032C6.96664 1.9032 6.96968 1.9032 6.97272 1.9032C6.97577 1.9032 6.97881 1.9032 6.98186 1.9032C6.98491 1.9032 6.98796 1.9032 6.99101 1.9032C6.99406 1.9032 6.99711 1.9032 7.00016 1.9032C7.00322 1.9032 7.00627 1.9032 7.00933 1.9032C7.01239 1.9032 7.01544 1.9032 7.0185 1.9032C7.02156 1.9032 7.02462 1.9032 7.02769 1.9032C7.03075 1.9032 7.03381 1.9032 7.03688 1.9032C7.03994 1.9032 7.04301 1.9032 7.04608 1.9032C7.04915 1.9032 7.05222 1.9032 7.05529 1.9032C7.05836 1.9032 7.06144 1.9032 7.06451 1.9032C7.06759 1.9032 7.07067 1.9032 7.07374 1.9032C7.07682 1.9032 7.0799 1.9032 7.08298 1.9032C7.08607 1.9032 7.08915 1.9032 7.09223 1.9032C7.09532 1.9032 7.09841 1.9032 7.10149 1.9032C7.10458 1.9032 7.10767 1.9032 7.11076 1.9032C7.11386 1.9032 7.11695 1.9032 7.12004 1.9032C7.12314 1.9032 7.12624 1.9032 7.12933 1.9032C7.13243 1.9032 7.13553 1.9032 7.13863 1.9032C7.14173 1.9032 7.14484 1.9032 7.14794 1.9032C7.15105 1.9032 7.15415 1.9032 7.15726 1.9032C7.16037 1.9032 7.16348 1.9032 7.16659 1.9032C7.16971 1.9032 7.17282 1.9032 7.17594 1.9032C7.17905 1.9032 7.18217 1.9032 7.18529 1.9032C7.18841 1.9032 7.19153 1.9032 7.19465 1.9032C7.19777 1.9032 7.2009 1.9032 7.20402 1.9032C7.20715 1.9032 7.21028 1.9032 7.21341 1.9032C7.21654 1.9032 7.21967 1.9032 7.2228 1.9032C7.22593 1.9032 7.22907 1.9032 7.2322 1.9032C7.23534 1.9032 7.23848 1.9032 7.24162 1.9032C7.24476 1.9032 7.2479 1.9032 7.25105 1.9032C7.25419 1.9032 7.25734 1.9032 7.26049 1.9032C7.26363 1.9032 7.26678 1.9032 7.26994 1.9032C7.27309 1.9032 7.27624 1.9032 7.2794 1.9032C7.28255 1.9032 7.28571 1.9032 7.28887 1.9032C7.29203 1.9032 7.29519 1.9032 7.29835 1.9032C7.30151 1.9032 7.30468 1.9032 7.30785 1.9032C7.31101 1.9032 7.31418 1.9032 7.31735 1.9032C7.32052 1.9032 7.3237 1.9032 7.32687 1.9032C7.33005 1.9032 7.33322 1.9032 7.3364 1.9032C7.33958 1.9032 7.34276 1.9032 7.34594 1.9032C7.34912 1.9032 7.35231 1.9032 7.35549 1.9032C7.35868 1.9032 7.36187 1.9032 7.36506 1.9032C7.36825 1.9032 7.37144 1.9032 7.37464 1.9032C7.37783 1.9032 7.38103 1.9032 7.38423 1.9032C7.38742 1.9032 7.39062 1.9032 7.39383 1.9032C7.39703 1.9032 7.40023 1.9032 7.40344 1.9032C7.40665 1.9032 7.40985 1.9032 7.41307 1.9032C7.41628 1.9032 7.41949 1.9032 7.4227 1.9032C7.42592 1.9032 7.42913 1.9032 7.43235 1.9032C7.43557 1.9032 7.43879 1.9032 7.44202 1.9032C7.44524 1.9032 7.44846 1.9032 7.45169 1.9032C7.45492 1.9032 7.45815 1.9032 7.46138 1.9032C7.46461 1.9032 7.46785 1.9032 7.47108 1.9032C7.47432 1.9032 7.47755 1.9032 7.48079 1.9032C7.48403 1.9032 7.48728 1.9032 7.49052 1.9032C7.49377 1.9032 7.49701 1.9032 7.50026 1.9032C7.50351 1.9032 7.50676 1.9032 7.51001 1.9032C7.51327 1.9032 7.51652 1.9032 7.51978 1.9032C7.52304 1.9032 7.52629 1.9032 7.52956 1.9032C7.53282 1.9032 7.53608 1.9032 7.53935 1.9032C7.54261 1.9032 7.54588 1.9032 7.54915 1.9032C7.55242 1.9032 7.5557 1.9032 7.55897 1.9032C7.56225 1.9032 7.56552 1.9032 7.5688 1.9032C7.57208 1.9032 7.57537 1.9032 7.57865 1.9032C7.58193 1.9032 7.58522 1.9032 7.58851 1.9032C7.5918 1.9032 7.59509 1.9032 7.59838 1.9032C7.60167 1.9032 7.60497 1.9032 7.60827 1.9032C7.61157 1.9032 7.61487 1.9032 7.61817 1.9032C7.62147 1.9032 7.62477 1.9032 7.62808 1.9032C7.63139 1.9032 7.6347 1.9032 7.63801 1.9032C7.64132 1.9032 7.64464 1.9032 7.64795 1.9032C7.65127 1.9032 7.65459 1.9032 7.65791 1.9032C7.66123 1.9032 7.66455 1.9032 7.66788 1.9032C7.67121 1.9032 7.67453 1.9032 7.67786 1.9032C7.68119 1.9032 7.68453 1.9032 7.68786 1.9032C7.6912 1.9032 7.69454 1.9032 7.69788 1.9032C7.70122 1.9032 7.70456 1.9032 7.7079 1.9032C7.71125 1.9032 7.7146 1.9032 7.71795 1.9032C7.7213 1.9032 7.72465 1.9032 7.728 1.9032C7.73136 1.9032 7.73472 1.9032 7.73808 1.9032C7.74144 1.9032 7.7448 1.9032 7.74816 1.9032C7.75153 1.9032 7.75489 1.9032 7.75826 1.9032C7.76163 1.9032 7.76501 1.9032 7.76838 1.9032C7.77175 1.9032 7.77513 1.9032 7.77851 1.9032C7.78189 1.9032 7.78527 1.9032 7.78866 1.9032C7.79204 1.9032 7.79543 1.9032 7.79882 1.9032C7.80221 1.9032 7.8056 1.9032 7.809 1.9032C7.81239 1.9032 7.81579 1.9032 7.81919 1.9032C7.82259 1.9032 7.82599 1.9032 7.8294 1.9032C7.8328 1.9032 7.83621 1.9032 7.83962 1.9032C7.84303 1.9032 7.84644 1.9032 7.84986 1.9032C7.85327 1.9032 7.85669 1.9032 7.86011 1.9032C7.86353 1.9032 7.86696 1.9032 7.87038 1.9032C7.87381 1.9032 7.87724 1.9032 7.88067 1.9032C7.8841 1.9032 7.88753 1.9032 7.89097 1.9032C7.8944 1.9032 7.89784 1.9032 7.90129 1.9032C7.90473 1.9032 7.90817 1.9032 7.91162 1.9032C7.91507 1.9032 7.91852 1.9032 7.92197 1.9032C7.92542 1.9032 7.92888 1.9032 7.93233 1.9032C7.93579 1.9032 7.93925 1.9032 7.94271 1.9032C7.94618 1.9032 7.94964 1.9032 7.95311 1.9032C7.95658 1.9032 7.96005 1.9032 7.96353 1.9032C7.967 1.9032 7.97048 1.9032 7.97396 1.9032C7.97744 1.9032 7.98092 1.9032 7.9844 1.9032C7.98789 1.9032 7.99138 1.9032 7.99487 1.9032C7.99836 1.9032 8.00185 1.9032 8.00535 1.9032C8.00884 1.9032 8.01234 1.9032 8.01584 1.9032C8.01935 1.9032 8.02285 1.9032 8.02636 1.9032C8.02987 1.9032 8.03338 1.9032 8.03689 1.9032C8.0404 1.9032 8.04392 1.9032 8.04744 1.9032C8.05095 1.9032 8.05448 1.9032 8.058 1.9032C8.06152 1.9032 8.06505 1.9032 8.06858 1.9032C8.07211 1.9032 8.07564 1.9032 8.07918 1.9032C8.08272 1.9032 8.08625 1.9032 8.0898 1.9032C8.09334 1.9032 8.09688 1.9032 8.10043 1.9032C8.10398 1.9032 8.10753 1.9032 8.11108 1.9032C8.11463 1.9032 8.11819 1.9032 8.12175 1.9032C8.12531 1.9032 8.12887 1.9032 8.13243 1.9032C8.136 1.9032 8.13956 1.9032 8.14314 1.9032C8.14671 1.9032 8.15028 1.9032 8.15386 1.9032C8.15743 1.9032 8.16101 1.9032 8.16459 1.9032C8.16818 1.9032 8.17176 1.9032 8.17535 1.9032C8.17894 1.9032 8.18253 1.9032 8.18612 1.9032C8.18972 1.9032 8.19332 1.9032 8.19692 1.9032C8.20052 1.9032 8.20412 1.9032 8.20773 1.9032C8.21133 1.9032 8.21494 1.9032 8.21855 1.9032C8.22217 1.9032 8.22578 1.9032 8.2294 1.9032C8.23302 1.9032 8.23664 1.9032 8.24027 1.9032C8.24389 1.9032 8.24752 1.9032 8.25115 1.9032C8.25478 1.9032 8.25841 1.9032 8.26205 1.9032C8.26569 1.9032 8.26933 1.9032 8.27297 1.9032C8.27661 1.9032 8.28026 1.9032 8.28391 1.9032C8.28756 1.9032 8.29121 1.9032 8.29487 1.9032C8.29852 1.9032 8.30218 1.9032 8.30584 1.9032C8.3095 1.9032 8.31317 1.9032 8.31684 1.9032C8.3205 1.9032 8.32417 1.9032 8.32785 1.9032V1.4032V0.903198C8.32417 0.903198 8.3205 0.903198 8.31684 0.903198C8.31317 0.903198 8.3095 0.903198 8.30584 0.903198C8.30218 0.903198 8.29852 0.903198 8.29487 0.903198C8.29121 0.903198 8.28756 0.903198 8.28391 0.903198C8.28026 0.903198 8.27661 0.903198 8.27297 0.903198C8.26933 0.903198 8.26569 0.903198 8.26205 0.903198C8.25841 0.903198 8.25478 0.903198 8.25115 0.903198C8.24752 0.903198 8.24389 0.903198 8.24027 0.903198C8.23664 0.903198 8.23302 0.903198 8.2294 0.903198C8.22578 0.903198 8.22217 0.903198 8.21855 0.903198C8.21494 0.903198 8.21133 0.903198 8.20773 0.903198C8.20412 0.903198 8.20052 0.903198 8.19692 0.903198C8.19332 0.903198 8.18972 0.903198 8.18612 0.903198C8.18253 0.903198 8.17894 0.903198 8.17535 0.903198C8.17176 0.903198 8.16818 0.903198 8.16459 0.903198C8.16101 0.903198 8.15743 0.903198 8.15386 0.903198C8.15028 0.903198 8.14671 0.903198 8.14314 0.903198C8.13956 0.903198 8.136 0.903198 8.13243 0.903198C8.12887 0.903198 8.12531 0.903198 8.12175 0.903198C8.11819 0.903198 8.11463 0.903198 8.11108 0.903198C8.10753 0.903198 8.10398 0.903198 8.10043 0.903198C8.09688 0.903198 8.09334 0.903198 8.0898 0.903198C8.08625 0.903198 8.08272 0.903198 8.07918 0.903198C8.07564 0.903198 8.07211 0.903198 8.06858 0.903198C8.06505 0.903198 8.06152 0.903198 8.058 0.903198C8.05448 0.903198 8.05095 0.903198 8.04744 0.903198C8.04392 0.903198 8.0404 0.903198 8.03689 0.903198C8.03338 0.903198 8.02987 0.903198 8.02636 0.903198C8.02285 0.903198 8.01935 0.903198 8.01584 0.903198C8.01234 0.903198 8.00884 0.903198 8.00535 0.903198C8.00185 0.903198 7.99836 0.903198 7.99487 0.903198C7.99138 0.903198 7.98789 0.903198 7.9844 0.903198C7.98092 0.903198 7.97744 0.903198 7.97396 0.903198C7.97048 0.903198 7.967 0.903198 7.96353 0.903198C7.96005 0.903198 7.95658 0.903198 7.95311 0.903198C7.94964 0.903198 7.94618 0.903198 7.94271 0.903198C7.93925 0.903198 7.93579 0.903198 7.93233 0.903198C7.92888 0.903198 7.92542 0.903198 7.92197 0.903198C7.91852 0.903198 7.91507 0.903198 7.91162 0.903198C7.90817 0.903198 7.90473 0.903198 7.90129 0.903198C7.89784 0.903198 7.8944 0.903198 7.89097 0.903198C7.88753 0.903198 7.8841 0.903198 7.88067 0.903198C7.87724 0.903198 7.87381 0.903198 7.87038 0.903198C7.86696 0.903198 7.86353 0.903198 7.86011 0.903198C7.85669 0.903198 7.85327 0.903198 7.84986 0.903198C7.84644 0.903198 7.84303 0.903198 7.83962 0.903198C7.83621 0.903198 7.8328 0.903198 7.8294 0.903198C7.82599 0.903198 7.82259 0.903198 7.81919 0.903198C7.81579 0.903198 7.81239 0.903198 7.809 0.903198C7.8056 0.903198 7.80221 0.903198 7.79882 0.903198C7.79543 0.903198 7.79204 0.903198 7.78866 0.903198C7.78527 0.903198 7.78189 0.903198 7.77851 0.903198C7.77513 0.903198 7.77175 0.903198 7.76838 0.903198C7.76501 0.903198 7.76163 0.903198 7.75826 0.903198C7.75489 0.903198 7.75153 0.903198 7.74816 0.903198C7.7448 0.903198 7.74144 0.903198 7.73808 0.903198C7.73472 0.903198 7.73136 0.903198 7.728 0.903198C7.72465 0.903198 7.7213 0.903198 7.71795 0.903198C7.7146 0.903198 7.71125 0.903198 7.7079 0.903198C7.70456 0.903198 7.70122 0.903198 7.69788 0.903198C7.69454 0.903198 7.6912 0.903198 7.68786 0.903198C7.68453 0.903198 7.68119 0.903198 7.67786 0.903198C7.67453 0.903198 7.67121 0.903198 7.66788 0.903198C7.66455 0.903198 7.66123 0.903198 7.65791 0.903198C7.65459 0.903198 7.65127 0.903198 7.64795 0.903198C7.64464 0.903198 7.64132 0.903198 7.63801 0.903198C7.6347 0.903198 7.63139 0.903198 7.62808 0.903198C7.62477 0.903198 7.62147 0.903198 7.61817 0.903198C7.61487 0.903198 7.61157 0.903198 7.60827 0.903198C7.60497 0.903198 7.60167 0.903198 7.59838 0.903198C7.59509 0.903198 7.5918 0.903198 7.58851 0.903198C7.58522 0.903198 7.58193 0.903198 7.57865 0.903198C7.57537 0.903198 7.57208 0.903198 7.5688 0.903198C7.56552 0.903198 7.56225 0.903198 7.55897 0.903198C7.5557 0.903198 7.55242 0.903198 7.54915 0.903198C7.54588 0.903198 7.54261 0.903198 7.53935 0.903198C7.53608 0.903198 7.53282 0.903198 7.52956 0.903198C7.52629 0.903198 7.52304 0.903198 7.51978 0.903198C7.51652 0.903198 7.51327 0.903198 7.51001 0.903198C7.50676 0.903198 7.50351 0.903198 7.50026 0.903198C7.49701 0.903198 7.49377 0.903198 7.49052 0.903198C7.48728 0.903198 7.48403 0.903198 7.48079 0.903198C7.47755 0.903198 7.47432 0.903198 7.47108 0.903198C7.46785 0.903198 7.46461 0.903198 7.46138 0.903198C7.45815 0.903198 7.45492 0.903198 7.45169 0.903198C7.44846 0.903198 7.44524 0.903198 7.44202 0.903198C7.43879 0.903198 7.43557 0.903198 7.43235 0.903198C7.42913 0.903198 7.42592 0.903198 7.4227 0.903198C7.41949 0.903198 7.41628 0.903198 7.41307 0.903198C7.40985 0.903198 7.40665 0.903198 7.40344 0.903198C7.40023 0.903198 7.39703 0.903198 7.39383 0.903198C7.39062 0.903198 7.38742 0.903198 7.38423 0.903198C7.38103 0.903198 7.37783 0.903198 7.37464 0.903198C7.37144 0.903198 7.36825 0.903198 7.36506 0.903198C7.36187 0.903198 7.35868 0.903198 7.35549 0.903198C7.35231 0.903198 7.34912 0.903198 7.34594 0.903198C7.34276 0.903198 7.33958 0.903198 7.3364 0.903198C7.33322 0.903198 7.33005 0.903198 7.32687 0.903198C7.3237 0.903198 7.32052 0.903198 7.31735 0.903198C7.31418 0.903198 7.31101 0.903198 7.30785 0.903198C7.30468 0.903198 7.30151 0.903198 7.29835 0.903198C7.29519 0.903198 7.29203 0.903198 7.28887 0.903198C7.28571 0.903198 7.28255 0.903198 7.2794 0.903198C7.27624 0.903198 7.27309 0.903198 7.26994 0.903198C7.26678 0.903198 7.26363 0.903198 7.26049 0.903198C7.25734 0.903198 7.25419 0.903198 7.25105 0.903198C7.2479 0.903198 7.24476 0.903198 7.24162 0.903198C7.23848 0.903198 7.23534 0.903198 7.2322 0.903198C7.22907 0.903198 7.22593 0.903198 7.2228 0.903198C7.21967 0.903198 7.21654 0.903198 7.21341 0.903198C7.21028 0.903198 7.20715 0.903198 7.20402 0.903198C7.2009 0.903198 7.19777 0.903198 7.19465 0.903198C7.19153 0.903198 7.18841 0.903198 7.18529 0.903198C7.18217 0.903198 7.17905 0.903198 7.17594 0.903198C7.17282 0.903198 7.16971 0.903198 7.16659 0.903198C7.16348 0.903198 7.16037 0.903198 7.15726 0.903198C7.15415 0.903198 7.15105 0.903198 7.14794 0.903198C7.14484 0.903198 7.14173 0.903198 7.13863 0.903198C7.13553 0.903198 7.13243 0.903198 7.12933 0.903198C7.12624 0.903198 7.12314 0.903198 7.12004 0.903198C7.11695 0.903198 7.11386 0.903198 7.11076 0.903198C7.10767 0.903198 7.10458 0.903198 7.10149 0.903198C7.09841 0.903198 7.09532 0.903198 7.09223 0.903198C7.08915 0.903198 7.08607 0.903198 7.08298 0.903198C7.0799 0.903198 7.07682 0.903198 7.07374 0.903198C7.07067 0.903198 7.06759 0.903198 7.06451 0.903198C7.06144 0.903198 7.05836 0.903198 7.05529 0.903198C7.05222 0.903198 7.04915 0.903198 7.04608 0.903198C7.04301 0.903198 7.03994 0.903198 7.03688 0.903198C7.03381 0.903198 7.03075 0.903198 7.02769 0.903198C7.02462 0.903198 7.02156 0.903198 7.0185 0.903198C7.01544 0.903198 7.01239 0.903198 7.00933 0.903198C7.00627 0.903198 7.00322 0.903198 7.00016 0.903198C6.99711 0.903198 6.99406 0.903198 6.99101 0.903198C6.98796 0.903198 6.98491 0.903198 6.98186 0.903198C6.97881 0.903198 6.97577 0.903198 6.97272 0.903198C6.96968 0.903198 6.96664 0.903198 6.96359 0.903198C6.96055 0.903198 6.95751 0.903198 6.95447 0.903198C6.95144 0.903198 6.9484 0.903198 6.94536 0.903198C6.94233 0.903198 6.93929 0.903198 6.93626 0.903198C6.93323 0.903198 6.9302 0.903198 6.92717 0.903198C6.92414 0.903198 6.92111 0.903198 6.91808 0.903198C6.91505 0.903198 6.91203 0.903198 6.909 0.903198C6.90598 0.903198 6.90296 0.903198 6.89993 0.903198C6.89691 0.903198 6.89389 0.903198 6.89087 0.903198C6.88785 0.903198 6.88484 0.903198 6.88182 0.903198C6.8788 0.903198 6.87579 0.903198 6.87278 0.903198C6.86976 0.903198 6.86675 0.903198 6.86374 0.903198C6.86073 0.903198 6.85772 0.903198 6.85471 0.903198C6.8517 0.903198 6.8487 0.903198 6.84569 0.903198C6.84269 0.903198 6.83968 0.903198 6.83668 0.903198C6.83368 0.903198 6.83067 0.903198 6.82767 0.903198C6.82467 0.903198 6.82167 0.903198 6.81868 0.903198C6.81568 0.903198 6.81268 0.903198 6.80969 0.903198C6.80669 0.903198 6.8037 0.903198 6.80071 0.903198C6.79771 0.903198 6.79472 0.903198 6.79173 0.903198C6.78874 0.903198 6.78575 0.903198 6.78276 0.903198C6.77978 0.903198 6.77679 0.903198 6.7738 0.903198C6.77082 0.903198 6.76783 0.903198 6.76485 0.903198C6.76187 0.903198 6.75889 0.903198 6.75591 0.903198C6.75293 0.903198 6.74995 0.903198 6.74697 0.903198C6.74399 0.903198 6.74101 0.903198 6.73804 0.903198C6.73506 0.903198 6.73209 0.903198 6.72911 0.903198C6.72614 0.903198 6.72317 0.903198 6.72019 0.903198C6.71722 0.903198 6.71425 0.903198 6.71128 0.903198C6.70831 0.903198 6.70535 0.903198 6.70238 0.903198C6.69941 0.903198 6.69645 0.903198 6.69348 0.903198C6.69052 0.903198 6.68755 0.903198 6.68459 0.903198C6.68163 0.903198 6.67867 0.903198 6.67571 0.903198C6.67275 0.903198 6.66979 0.903198 6.66683 0.903198C6.66387 0.903198 6.66091 0.903198 6.65796 0.903198C6.655 0.903198 6.65205 0.903198 6.64909 0.903198C6.64614 0.903198 6.64319 0.903198 6.64023 0.903198C6.63728 0.903198 6.63433 0.903198 6.63138 0.903198C6.62843 0.903198 6.62548 0.903198 6.62253 0.903198C6.61959 0.903198 6.61664 0.903198 6.61369 0.903198C6.61075 0.903198 6.6078 0.903198 6.60486 0.903198C6.60191 0.903198 6.59897 0.903198 6.59603 0.903198C6.59309 0.903198 6.59015 0.903198 6.58721 0.903198C6.58427 0.903198 6.58133 0.903198 6.57839 0.903198C6.57545 0.903198 6.57251 0.903198 6.56958 0.903198C6.56664 0.903198 6.5637 0.903198 6.56077 0.903198C6.55784 0.903198 6.5549 0.903198 6.55197 0.903198C6.54904 0.903198 6.5461 0.903198 6.54317 0.903198C6.54024 0.903198 6.53731 0.903198 6.53438 0.903198C6.53145 0.903198 6.52853 0.903198 6.5256 0.903198C6.52267 0.903198 6.51974 0.903198 6.51682 0.903198C6.51389 0.903198 6.51097 0.903198 6.50804 0.903198C6.50512 0.903198 6.5022 0.903198 6.49927 0.903198C6.49635 0.903198 6.49343 0.903198 6.49051 0.903198C6.48759 0.903198 6.48467 0.903198 6.48175 0.903198C6.47883 0.903198 6.47591 0.903198 6.47299 0.903198C6.47008 0.903198 6.46716 0.903198 6.46424 0.903198C6.46133 0.903198 6.45841 0.903198 6.4555 0.903198C6.45258 0.903198 6.44967 0.903198 6.44676 0.903198C6.44384 0.903198 6.44093 0.903198 6.43802 0.903198C6.43511 0.903198 6.4322 0.903198 6.42929 0.903198C6.42638 0.903198 6.42347 0.903198 6.42056 0.903198C6.41765 0.903198 6.41474 0.903198 6.41184 0.903198C6.40893 0.903198 6.40602 0.903198 6.40312 0.903198C6.40021 0.903198 6.39731 0.903198 6.3944 0.903198C6.3915 0.903198 6.3886 0.903198 6.38569 0.903198C6.38279 0.903198 6.37989 0.903198 6.37699 0.903198C6.37408 0.903198 6.37118 0.903198 6.36828 0.903198C6.36538 0.903198 6.36248 0.903198 6.35958 0.903198C6.35668 0.903198 6.35379 0.903198 6.35089 0.903198C6.34799 0.903198 6.34509 0.903198 6.3422 0.903198C6.3393 0.903198 6.3364 0.903198 6.33351 0.903198C6.33061 0.903198 6.32772 0.903198 6.32482 0.903198C6.32193 0.903198 6.31903 0.903198 6.31614 0.903198C6.31325 0.903198 6.31036 0.903198 6.30746 0.903198C6.30457 0.903198 6.30168 0.903198 6.29879 0.903198C6.2959 0.903198 6.29301 0.903198 6.29012 0.903198C6.28723 0.903198 6.28434 0.903198 6.28145 0.903198C6.27856 0.903198 6.27567 0.903198 6.27278 0.903198C6.2699 0.903198 6.26701 0.903198 6.26412 0.903198C6.26124 0.903198 6.25835 0.903198 6.25546 0.903198C6.25258 0.903198 6.24969 0.903198 6.24681 0.903198C6.24392 0.903198 6.24104 0.903198 6.23815 0.903198C6.23527 0.903198 6.23239 0.903198 6.2295 0.903198C6.22662 0.903198 6.22374 0.903198 6.22086 0.903198C6.21797 0.903198 6.21509 0.903198 6.21221 0.903198C6.20933 0.903198 6.20645 0.903198 6.20357 0.903198C6.20069 0.903198 6.19781 0.903198 6.19493 0.903198C6.19205 0.903198 6.18917 0.903198 6.18629 0.903198C6.18341 0.903198 6.18053 0.903198 6.17765 0.903198C6.17477 0.903198 6.1719 0.903198 6.16902 0.903198C6.16614 0.903198 6.16326 0.903198 6.16039 0.903198C6.15751 0.903198 6.15463 0.903198 6.15176 0.903198C6.14888 0.903198 6.14601 0.903198 6.14313 0.903198C6.14026 0.903198 6.13738 0.903198 6.13451 0.903198C6.13163 0.903198 6.12876 0.903198 6.12588 0.903198C6.12301 0.903198 6.12013 0.903198 6.11726 0.903198C6.11439 0.903198 6.11151 0.903198 6.10864 0.903198C6.10577 0.903198 6.10289 0.903198 6.10002 0.903198C6.09715 0.903198 6.09428 0.903198 6.09141 0.903198C6.08853 0.903198 6.08566 0.903198 6.08279 0.903198C6.07992 0.903198 6.07705 0.903198 6.07418 0.903198C6.0713 0.903198 6.06843 0.903198 6.06556 0.903198C6.06269 0.903198 6.05982 0.903198 6.05695 0.903198C6.05408 0.903198 6.05121 0.903198 6.04834 0.903198C6.04547 0.903198 6.0426 0.903198 6.03973 0.903198C6.03686 0.903198 6.03399 0.903198 6.03112 0.903198C6.02826 0.903198 6.02539 0.903198 6.02252 0.903198C6.01965 0.903198 6.01678 0.903198 6.01391 0.903198C6.01104 0.903198 6.00817 0.903198 6.00531 0.903198C6.00244 0.903198 5.99957 0.903198 5.9967 0.903198C5.99383 0.903198 5.99096 0.903198 5.9881 0.903198C5.98523 0.903198 5.98236 0.903198 5.97949 0.903198C5.97663 0.903198 5.97376 0.903198 5.97089 0.903198C5.96802 0.903198 5.96516 0.903198 5.96229 0.903198C5.95942 0.903198 5.95655 0.903198 5.95369 0.903198C5.95082 0.903198 5.94795 0.903198 5.94508 0.903198C5.94222 0.903198 5.93935 0.903198 5.93648 0.903198C5.93362 0.903198 5.93075 0.903198 5.92788 0.903198C5.92501 0.903198 5.92215 0.903198 5.91928 0.903198C5.91641 0.903198 5.91355 0.903198 5.91068 0.903198C5.90781 0.903198 5.90494 0.903198 5.90208 0.903198C5.89921 0.903198 5.89634 0.903198 5.89348 0.903198C5.89061 0.903198 5.88774 0.903198 5.88487 0.903198C5.88201 0.903198 5.87914 0.903198 5.87627 0.903198C5.8734 0.903198 5.87054 0.903198 5.86767 0.903198C5.8648 0.903198 5.86193 0.903198 5.85907 0.903198C5.8562 0.903198 5.85333 0.903198 5.85046 0.903198C5.84759 0.903198 5.84473 0.903198 5.84186 0.903198C5.83899 0.903198 5.83612 0.903198 5.83325 0.903198C5.83039 0.903198 5.82752 0.903198 5.82465 0.903198C5.82178 0.903198 5.81891 0.903198 5.81604 0.903198C5.81317 0.903198 5.8103 0.903198 5.80744 0.903198C5.80457 0.903198 5.8017 0.903198 5.79883 0.903198C5.79596 0.903198 5.79309 0.903198 5.79022 0.903198C5.78735 0.903198 5.78448 0.903198 5.78161 0.903198C5.77874 0.903198 5.77587 0.903198 5.773 0.903198C5.77013 0.903198 5.76725 0.903198 5.76438 0.903198C5.76151 0.903198 5.75864 0.903198 5.75577 0.903198C5.7529 0.903198 5.75003 0.903198 5.74715 0.903198C5.74428 0.903198 5.74141 0.903198 5.73854 0.903198C5.73566 0.903198 5.73279 0.903198 5.72992 0.903198C5.72705 0.903198 5.72417 0.903198 5.7213 0.903198C5.71843 0.903198 5.71555 0.903198 5.71268 0.903198C5.7098 0.903198 5.70693 0.903198 5.70405 0.903198C5.70118 0.903198 5.6983 0.903198 5.69543 0.903198C5.69255 0.903198 5.68968 0.903198 5.6868 0.903198C5.68392 0.903198 5.68105 0.903198 5.67817 0.903198C5.67529 0.903198 5.67242 0.903198 5.66954 0.903198C5.66666 0.903198 5.66378 0.903198 5.66091 0.903198C5.65803 0.903198 5.65515 0.903198 5.65227 0.903198C5.64939 0.903198 5.64651 0.903198 5.64363 0.903198C5.64075 0.903198 5.63787 0.903198 5.63499 0.903198C5.63211 0.903198 5.62923 0.903198 5.62635 0.903198C5.62347 0.903198 5.62059 0.903198 5.6177 0.903198C5.61482 0.903198 5.61194 0.903198 5.60906 0.903198C5.60617 0.903198 5.60329 0.903198 5.60041 0.903198C5.59752 0.903198 5.59464 0.903198 5.59175 0.903198C5.58887 0.903198 5.58598 0.903198 5.5831 0.903198C5.58021 0.903198 5.57732 0.903198 5.57444 0.903198C5.57155 0.903198 5.56866 0.903198 5.56578 0.903198C5.56289 0.903198 5.56 0.903198 5.55711 0.903198C5.55422 0.903198 5.55133 0.903198 5.54844 0.903198C5.54555 0.903198 5.54266 0.903198 5.53977 0.903198C5.53688 0.903198 5.53399 0.903198 5.5311 0.903198C5.5282 0.903198 5.52531 0.903198 5.52242 0.903198C5.51953 0.903198 5.51663 0.903198 5.51374 0.903198C5.51084 0.903198 5.50795 0.903198 5.50505 0.903198C5.50216 0.903198 5.49926 0.903198 5.49636 0.903198C5.49347 0.903198 5.49057 0.903198 5.48767 0.903198C5.48478 0.903198 5.48188 0.903198 5.47898 0.903198C5.47608 0.903198 5.47318 0.903198 5.47028 0.903198C5.46738 0.903198 5.46448 0.903198 5.46157 0.903198C5.45867 0.903198 5.45577 0.903198 5.45287 0.903198C5.44996 0.903198 5.44706 0.903198 5.44416 0.903198C5.44125 0.903198 5.43835 0.903198 5.43544 0.903198C5.43254 0.903198 5.42963 0.903198 5.42672 0.903198C5.42381 0.903198 5.42091 0.903198 5.418 0.903198C5.41509 0.903198 5.41218 0.903198 5.40927 0.903198C5.40636 0.903198 5.40345 0.903198 5.40054 0.903198C5.39763 0.903198 5.39471 0.903198 5.3918 0.903198C5.38889 0.903198 5.38598 0.903198 5.38306 0.903198C5.38015 0.903198 5.37723 0.903198 5.37432 0.903198C5.3714 0.903198 5.36848 0.903198 5.36556 0.903198C5.36265 0.903198 5.35973 0.903198 5.35681 0.903198C5.35389 0.903198 5.35097 0.903198 5.34805 0.903198C5.34513 0.903198 5.34221 0.903198 5.33929 0.903198C5.33636 0.903198 5.33344 0.903198 5.33052 0.903198C5.32759 0.903198 5.32467 0.903198 5.32174 0.903198C5.31882 0.903198 5.31589 0.903198 5.31296 0.903198C5.31003 0.903198 5.30711 0.903198 5.30418 0.903198C5.30125 0.903198 5.29832 0.903198 5.29539 0.903198C5.29245 0.903198 5.28952 0.903198 5.28659 0.903198C5.28366 0.903198 5.28072 0.903198 5.27779 0.903198C5.27485 0.903198 5.27192 0.903198 5.26898 0.903198C5.26605 0.903198 5.26311 0.903198 5.26017 0.903198C5.25723 0.903198 5.25429 0.903198 5.25135 0.903198C5.24841 0.903198 5.24547 0.903198 5.24253 0.903198C5.23959 0.903198 5.23664 0.903198 5.2337 0.903198C5.23076 0.903198 5.22781 0.903198 5.22487 0.903198C5.22192 0.903198 5.21897 0.903198 5.21603 0.903198C5.21308 0.903198 5.21013 0.903198 5.20718 0.903198C5.20423 0.903198 5.20128 0.903198 5.19833 0.903198C5.19537 0.903198 5.19242 0.903198 5.18947 0.903198C5.18651 0.903198 5.18356 0.903198 5.1806 0.903198C5.17765 0.903198 5.17469 0.903198 5.17173 0.903198C5.16877 0.903198 5.16581 0.903198 5.16285 0.903198C5.15989 0.903198 5.15693 0.903198 5.15397 0.903198C5.15101 0.903198 5.14804 0.903198 5.14508 0.903198C5.14211 0.903198 5.13915 0.903198 5.13618 0.903198C5.13321 0.903198 5.13025 0.903198 5.12728 0.903198C5.12431 0.903198 5.12134 0.903198 5.11837 0.903198C5.11539 0.903198 5.11242 0.903198 5.10945 0.903198C5.10647 0.903198 5.1035 0.903198 5.10052 0.903198C5.09755 0.903198 5.09457 0.903198 5.09159 0.903198C5.08861 0.903198 5.08563 0.903198 5.08265 0.903198C5.07967 0.903198 5.07669 0.903198 5.07371 0.903198C5.07073 0.903198 5.06774 0.903198 5.06476 0.903198C5.06177 0.903198 5.05878 0.903198 5.0558 0.903198C5.05281 0.903198 5.04982 0.903198 5.04683 0.903198C5.04384 0.903198 5.04085 0.903198 5.03785 0.903198C5.03486 0.903198 5.03187 0.903198 5.02887 0.903198C5.02588 0.903198 5.02288 0.903198 5.01988 0.903198C5.01689 0.903198 5.01389 0.903198 5.01089 0.903198C5.00789 0.903198 5.00488 0.903198 5.00188 0.903198C4.99888 0.903198 4.99587 0.903198 4.99287 0.903198C4.98986 0.903198 4.98686 0.903198 4.98385 0.903198C4.98084 0.903198 4.97783 0.903198 4.97482 0.903198C4.97181 0.903198 4.9688 0.903198 4.96578 0.903198C4.96277 0.903198 4.95975 0.903198 4.95674 0.903198C4.95372 0.903198 4.95071 0.903198 4.94769 0.903198C4.94467 0.903198 4.94165 0.903198 4.93863 0.903198C4.9356 0.903198 4.93258 0.903198 4.92956 0.903198C4.92653 0.903198 4.92351 0.903198 4.92048 0.903198C4.91745 0.903198 4.91442 0.903198 4.91139 0.903198C4.90836 0.903198 4.90533 0.903198 4.9023 0.903198C4.89927 0.903198 4.89623 0.903198 4.8932 0.903198C4.89016 0.903198 4.88712 0.903198 4.88409 0.903198C4.88105 0.903198 4.87801 0.903198 4.87497 0.903198C4.87192 0.903198 4.86888 0.903198 4.86584 0.903198C4.86279 0.903198 4.85975 0.903198 4.8567 0.903198C4.85365 0.903198 4.8506 0.903198 4.84755 0.903198C4.8445 0.903198 4.84145 0.903198 4.8384 0.903198C4.83534 0.903198 4.83229 0.903198 4.82923 0.903198C4.82617 0.903198 4.82312 0.903198 4.82006 0.903198C4.817 0.903198 4.81394 0.903198 4.81087 0.903198C4.80781 0.903198 4.80475 0.903198 4.80168 0.903198C4.79861 0.903198 4.79555 0.903198 4.79248 0.903198C4.78941 0.903198 4.78634 0.903198 4.78327 0.903198C4.7802 0.903198 4.77712 0.903198 4.77405 0.903198C4.77097 0.903198 4.76789 0.903198 4.76482 0.903198C4.76174 0.903198 4.75866 0.903198 4.75558 0.903198C4.75249 0.903198 4.74941 0.903198 4.74633 0.903198C4.74324 0.903198 4.74015 0.903198 4.73707 0.903198C4.73398 0.903198 4.73089 0.903198 4.7278 0.903198C4.7247 0.903198 4.72161 0.903198 4.71852 0.903198C4.71542 0.903198 4.71233 0.903198 4.70923 0.903198C4.70613 0.903198 4.70303 0.903198 4.69993 0.903198C4.69683 0.903198 4.69372 0.903198 4.69062 0.903198C4.68751 0.903198 4.6844 0.903198 4.6813 0.903198C4.67819 0.903198 4.67508 0.903198 4.67197 0.903198C4.66885 0.903198 4.66574 0.903198 4.66262 0.903198C4.65951 0.903198 4.65639 0.903198 4.65327 0.903198C4.65015 0.903198 4.64703 0.903198 4.64391 0.903198C4.64079 0.903198 4.63766 0.903198 4.63454 0.903198C4.63141 0.903198 4.62828 0.903198 4.62515 0.903198C4.62203 0.903198 4.61889 0.903198 4.61576 0.903198C4.61263 0.903198 4.60949 0.903198 4.60635 0.903198C4.60322 0.903198 4.60008 0.903198 4.59694 0.903198C4.5938 0.903198 4.59066 0.903198 4.58751 0.903198C4.58437 0.903198 4.58122 0.903198 4.57807 0.903198C4.57493 0.903198 4.57178 0.903198 4.56862 0.903198C4.56547 0.903198 4.56232 0.903198 4.55916 0.903198C4.55601 0.903198 4.55285 0.903198 4.54969 0.903198C4.54653 0.903198 4.54337 0.903198 4.54021 0.903198C4.53705 0.903198 4.53388 0.903198 4.53071 0.903198C4.52755 0.903198 4.52438 0.903198 4.52121 0.903198C4.51804 0.903198 4.51486 0.903198 4.51169 0.903198C4.50851 0.903198 4.50534 0.903198 4.50216 0.903198C4.49898 0.903198 4.4958 0.903198 4.49262 0.903198C4.48944 0.903198 4.48625 0.903198 4.48307 0.903198C4.47988 0.903198 4.47669 0.903198 4.4735 0.903198C4.47031 0.903198 4.46712 0.903198 4.46392 0.903198C4.46073 0.903198 4.45753 0.903198 4.45433 0.903198C4.45114 0.903198 4.44794 0.903198 4.44473 0.903198C4.44153 0.903198 4.43833 0.903198 4.43512 0.903198C4.43191 0.903198 4.4287 0.903198 4.42549 0.903198C4.42228 0.903198 4.41907 0.903198 4.41586 0.903198C4.41264 0.903198 4.40942 0.903198 4.40621 0.903198C4.40299 0.903198 4.39977 0.903198 4.39654 0.903198C4.39332 0.903198 4.39009 0.903198 4.38687 0.903198C4.38364 0.903198 4.38041 0.903198 4.37718 0.903198C4.37395 0.903198 4.37071 0.903198 4.36748 0.903198C4.36424 0.903198 4.36101 0.903198 4.35777 0.903198C4.35453 0.903198 4.35128 0.903198 4.34804 0.903198C4.34479 0.903198 4.34155 0.903198 4.3383 0.903198C4.33505 0.903198 4.3318 0.903198 4.32855 0.903198C4.32529 0.903198 4.32204 0.903198 4.31878 0.903198C4.31552 0.903198 4.31226 0.903198 4.309 0.903198C4.30574 0.903198 4.30248 0.903198 4.29921 0.903198C4.29595 0.903198 4.29268 0.903198 4.28941 0.903198C4.28614 0.903198 4.28286 0.903198 4.27959 0.903198C4.27631 0.903198 4.27304 0.903198 4.26976 0.903198C4.26648 0.903198 4.26319 0.903198 4.25991 0.903198C4.25663 0.903198 4.25334 0.903198 4.25005 0.903198C4.24676 0.903198 4.24347 0.903198 4.24018 0.903198C4.23689 0.903198 4.23359 0.903198 4.23029 0.903198C4.22699 0.903198 4.22369 0.903198 4.22039 0.903198C4.21709 0.903198 4.21378 0.903198 4.21048 0.903198C4.20717 0.903198 4.20386 0.903198 4.20055 0.903198C4.19724 0.903198 4.19392 0.903198 4.19061 0.903198C4.18729 0.903198 4.18397 0.903198 4.18065 0.903198C4.17733 0.903198 4.17401 0.903198 4.17068 0.903198C4.16736 0.903198 4.16403 0.903198 4.1607 0.903198C4.15737 0.903198 4.15403 0.903198 4.1507 0.903198C4.14736 0.903198 4.14402 0.903198 4.14068 0.903198C4.13734 0.903198 4.134 0.903198 4.13066 0.903198C4.12731 0.903198 4.12396 0.903198 4.12061 0.903198C4.11726 0.903198 4.11391 0.903198 4.11056 0.903198C4.1072 0.903198 4.10384 0.903198 4.10048 0.903198C4.09712 0.903198 4.09376 0.903198 4.0904 0.903198C4.08703 0.903198 4.08367 0.903198 4.0803 0.903198C4.07693 0.903198 4.07355 0.903198 4.07018 0.903198C4.0668 0.903198 4.06343 0.903198 4.06005 0.903198C4.05667 0.903198 4.05329 0.903198 4.0499 0.903198C4.04652 0.903198 4.04313 0.903198 4.03974 0.903198C4.03635 0.903198 4.03296 0.903198 4.02956 0.903198C4.02617 0.903198 4.02277 0.903198 4.01937 0.903198C4.01597 0.903198 4.01257 0.903198 4.00916 0.903198C4.00576 0.903198 4.00235 0.903198 3.99894 0.903198C3.99553 0.903198 3.99212 0.903198 3.9887 0.903198C3.98529 0.903198 3.98187 0.903198 3.97845 0.903198C3.97503 0.903198 3.9716 0.903198 3.96818 0.903198C3.96475 0.903198 3.96132 0.903198 3.95789 0.903198C3.95446 0.903198 3.95103 0.903198 3.94759 0.903198C3.94415 0.903198 3.94072 0.903198 3.93727 0.903198C3.93383 0.903198 3.93039 0.903198 3.92694 0.903198C3.92349 0.903198 3.92004 0.903198 3.91659 0.903198C3.91314 0.903198 3.90968 0.903198 3.90623 0.903198C3.90277 0.903198 3.89931 0.903198 3.89585 0.903198C3.89238 0.903198 3.88892 0.903198 3.88545 0.903198C3.88198 0.903198 3.87851 0.903198 3.87503 0.903198C3.87156 0.903198 3.86808 0.903198 3.8646 0.903198C3.86112 0.903198 3.85764 0.903198 3.85416 0.903198C3.85067 0.903198 3.84718 0.903198 3.84369 0.903198C3.8402 0.903198 3.83671 0.903198 3.83321 0.903198C3.82972 0.903198 3.82622 0.903198 3.82272 0.903198C3.81921 0.903198 3.81571 0.903198 3.8122 0.903198C3.80869 0.903198 3.80518 0.903198 3.80167 0.903198C3.79816 0.903198 3.79464 0.903198 3.79112 0.903198C3.78761 0.903198 3.78408 0.903198 3.78056 0.903198C3.77704 0.903198 3.77351 0.903198 3.76998 0.903198C3.76645 0.903198 3.76292 0.903198 3.75938 0.903198C3.75584 0.903198 3.75231 0.903198 3.74876 0.903198C3.74522 0.903198 3.74168 0.903198 3.73813 0.903198C3.73458 0.903198 3.73103 0.903198 3.72748 0.903198C3.72393 0.903198 3.72037 0.903198 3.71681 0.903198C3.71325 0.903198 3.70969 0.903198 3.70613 0.903198C3.70256 0.903198 3.69899 0.903198 3.69542 0.903198C3.69185 0.903198 3.68828 0.903198 3.6847 0.903198C3.68113 0.903198 3.67755 0.903198 3.67397 0.903198C3.67038 0.903198 3.6668 0.903198 3.66321 0.903198C3.65962 0.903198 3.65603 0.903198 3.65243 0.903198C3.64884 0.903198 3.64524 0.903198 3.64164 0.903198C3.63804 0.903198 3.63444 0.903198 3.63083 0.903198C3.62723 0.903198 3.62362 0.903198 3.62 0.903198C3.61639 0.903198 3.61278 0.903198 3.60916 0.903198C3.60554 0.903198 3.60192 0.903198 3.59829 0.903198C3.59467 0.903198 3.59104 0.903198 3.58741 0.903198C3.58378 0.903198 3.58015 0.903198 3.57651 0.903198C3.57287 0.903198 3.56923 0.903198 3.56559 0.903198C3.56195 0.903198 3.5583 0.903198 3.55465 0.903198C3.551 0.903198 3.54735 0.903198 3.54369 0.903198C3.54004 0.903198 3.53638 0.903198 3.53272 0.903198C3.52906 0.903198 3.52539 0.903198 3.52172 0.903198C3.51806 0.903198 3.51439 0.903198 3.51071 0.903198V1.4032ZM11.3386 4.41391H10.8386V9.23105H11.3386H11.8386V4.41391H11.3386ZM8.32785 12.2418V11.7418H3.51071V12.2418V12.7418H8.32785V12.2418ZM0.5 9.23105H1V4.41391H0.5H0V9.23105H0.5ZM3.51071 12.2418V11.7418C2.12408 11.7418 1 10.6177 1 9.23105H0.5H0C0 11.17 1.5718 12.7418 3.51071 12.7418V12.2418ZM11.3386 9.23105H10.8386C10.8386 10.6177 9.71448 11.7418 8.32785 11.7418V12.2418V12.7418C10.2668 12.7418 11.8386 11.17 11.8386 9.23105H11.3386ZM8.32785 1.4032V1.9032C9.71448 1.9032 10.8386 3.02728 10.8386 4.41391H11.3386H11.8386C11.8386 2.475 10.2668 0.903198 8.32785 0.903198V1.4032ZM1.28548 2.3859L0.916024 2.04899C0.34739 2.67257 0 3.50325 0 4.41391H0.5H1C1 3.76215 1.24769 3.16939 1.65493 2.7228L1.28548 2.3859Z" fill="#2E2E48"/>
<path d="M2.30615 4.41399H11.3383" stroke="#2E2E48" stroke-linecap="round" stroke-linejoin="round"/>
<path d="M8.6292 0.5L8.6292 2.30643" stroke="#2E2E48" stroke-linecap="round" stroke-linejoin="round"/>
<path d="M3.20976 0.5L3.20976 2.30643" stroke="#2E2E48" stroke-linecap="round" stroke-linejoin="round"/>
<path d="M2.60742 6.82259H3.20956" stroke="#2E2E48" stroke-linecap="round" stroke-linejoin="round"/>
<path d="M5.61816 6.82259H6.22031" stroke="#2E2E48" stroke-linecap="round" stroke-linejoin="round"/>
<path d="M8.62891 6.82259H9.23105" stroke="#2E2E48" stroke-linecap="round" stroke-linejoin="round"/>
<path d="M2.60742 9.23116H3.20956" stroke="#2E2E48" stroke-linecap="round" stroke-linejoin="round"/>
<path d="M5.61816 9.23116H6.22031" stroke="#2E2E48" stroke-linecap="round" stroke-linejoin="round"/>
<path d="M8.62891 9.23116H9.23105" stroke="#2E2E48" stroke-linecap="round" stroke-linejoin="round"/>
</svg>
