<svg width="57" height="57" viewBox="0 0 57 57" fill="none" xmlns="http://www.w3.org/2000/svg">
<rect width="57" height="57" rx="28.5" fill="#EDF9FF" fill-opacity="0.6"/>
<path fill-rule="evenodd" clip-rule="evenodd" d="M36.3206 14.9456C37.2481 14.0181 38.7519 14.0181 39.6794 14.9456L46.8044 22.0706C47.7319 22.9981 47.7319 24.5019 46.8044 25.4294C45.8769 26.3569 44.3731 26.3569 43.4456 25.4294L36.3206 18.3044C35.3931 17.3769 35.3931 15.8731 36.3206 14.9456Z" fill="#808080" fill-opacity="0.6"/>
<path fill-rule="evenodd" clip-rule="evenodd" d="M46.8044 14.9456C47.7319 15.8731 47.7319 17.3769 46.8044 18.3044L39.6794 25.4294C38.7519 26.3569 37.2481 26.3569 36.3206 25.4294C35.3931 24.5019 35.3931 22.9981 36.3206 22.0706L43.4456 14.9456C44.3731 14.0181 45.8769 14.0181 46.8044 14.9456Z" fill="#808080" fill-opacity="0.6"/>
<path fill-rule="evenodd" clip-rule="evenodd" d="M10.1956 14.9456C11.1231 14.0181 12.6269 14.0181 13.5544 14.9456L20.6794 22.0706C21.6069 22.9981 21.6069 24.5019 20.6794 25.4294C19.7519 26.3569 18.2481 26.3569 17.3206 25.4294L10.1956 18.3044C9.26813 17.3769 9.26813 15.8731 10.1956 14.9456Z" fill="#808080" fill-opacity="0.6"/>
<path fill-rule="evenodd" clip-rule="evenodd" d="M20.6794 14.9456C21.6069 15.8731 21.6069 17.3769 20.6794 18.3044L13.5544 25.4294C12.6269 26.3569 11.1231 26.3569 10.1956 25.4294C9.26813 24.5019 9.26813 22.9981 10.1956 22.0706L17.3206 14.9456C18.2481 14.0181 19.7519 14.0181 20.6794 14.9456Z" fill="#808080" fill-opacity="0.6"/>
<path fill-rule="evenodd" clip-rule="evenodd" d="M19.8254 33.8197C22.3141 31.9101 25.3633 30.875 28.5003 30.875C31.6372 30.875 34.6864 31.9101 37.1751 33.8197C39.6638 35.7293 41.4528 38.4068 42.2647 41.4368C42.6042 42.7038 41.8523 44.0061 40.5853 44.3456C39.3183 44.6851 38.016 43.9332 37.6766 42.6662C37.1353 40.6462 35.9426 38.8612 34.2835 37.5881C32.6244 36.3151 30.5915 35.625 28.5003 35.625C26.409 35.625 24.3761 36.3151 22.717 37.5881C21.0579 38.8612 19.8652 40.6462 19.324 42.6662C18.9845 43.9332 17.6822 44.6851 16.4152 44.3456C15.1482 44.0061 14.3963 42.7038 14.7358 41.4368C15.5477 38.4068 17.3367 35.7293 19.8254 33.8197Z" fill="#808080" fill-opacity="0.6"/>
</svg>
