<svg width="50" height="50" viewBox="0 0 50 50" fill="none" xmlns="http://www.w3.org/2000/svg">
<path d="M38.3535 37.3838C38.1968 39.1026 36.6707 40.4959 34.9448 40.4959C33.2189 40.4959 31.9468 39.1026 32.1035 37.3838M38.3535 37.3838C38.5103 35.665 37.2382 34.2717 35.5123 34.2717C33.7864 34.2717 32.2603 35.665 32.1035 37.3838M38.3535 37.3838C38.547 37.3838 38.6437 37.3838 38.7257 37.3811C41.3666 37.2953 43.6731 35.1896 43.9984 32.5674C44.0085 32.4859 44.0173 32.3896 44.0348 32.197L44.4132 28.0475M42.2263 18.7113L39.6124 13.4261C39.1353 12.4613 38.8967 11.979 38.4582 11.7143C38.0197 11.4497 37.459 11.4497 36.3375 11.4497H34.2905M42.2263 18.7113L44.3315 22.9679C44.5602 23.4302 44.6745 23.6614 44.7205 23.9167C44.7666 24.1721 44.7422 24.4397 44.6933 24.975L44.4132 28.0475M42.2263 18.7113H39.0145C38.4392 18.7113 37.9305 19.1757 37.8782 19.7486L37.3107 25.9728C37.2062 27.1187 38.0543 28.0475 39.2049 28.0475H44.4132M34.2905 11.4497C33.9717 10.241 32.8931 9.375 31.5325 9.375H16.6665C16.6665 9.375 10.4166 9.37499 9.37494 9.375C7.29161 9.37502 7.2916 11.4583 7.2916 11.4583M34.2905 11.4497C34.3761 11.7742 34.4069 12.1234 34.3737 12.4871L33.3332 23.8981C33.1765 25.6168 31.6503 27.0102 29.9244 27.0102H6.96612C6.49471 27.0102 6.25901 27.0102 6.09926 27.156C5.93952 27.3019 5.91812 27.5366 5.87531 28.006L5.58776 31.1596C5.27431 34.5971 7.81844 37.3838 11.2702 37.3838H14.3952M32.1035 37.3838H20.6452M20.6452 37.3838C20.4885 39.1026 18.9623 40.4959 17.2364 40.4959C15.5106 40.4959 14.2385 39.1026 14.3952 37.3838M20.6452 37.3838C20.8019 35.665 19.5299 34.2717 17.804 34.2717C16.0781 34.2717 14.5519 35.665 14.3952 37.3838" stroke="#F4FBFF" stroke-width="2" stroke-linecap="round"/>
<path d="M5.2085 22.9167H9.37516" stroke="#F4FBFF" stroke-width="2" stroke-linecap="round"/>
<path d="M5.2085 18.75H11.4585" stroke="#F4FBFF" stroke-width="2" stroke-linecap="round"/>
<path d="M5.2085 14.5833H13.5418" stroke="#F4FBFF" stroke-width="2" stroke-linecap="round"/>
<path d="M22.1319 14.1821C22.0352 14.3728 22.0132 14.6144 21.9691 15.0978L21.8791 16.0854C21.8769 16.1088 21.8759 16.1206 21.8679 16.1279C21.8599 16.1352 21.8481 16.1352 21.8245 16.1352H20.8329C20.3475 16.1352 20.1048 16.1352 19.9062 16.2141C19.6414 16.3194 19.4202 16.5214 19.2913 16.7755C19.1946 16.9662 19.1725 17.2078 19.1285 17.6912C19.0844 18.1746 19.0624 18.4162 19.1243 18.6069C19.2068 18.861 19.3912 19.063 19.6368 19.1683C19.8211 19.2472 20.0637 19.2472 20.5491 19.2472H21.5408C21.5643 19.2472 21.5761 19.2472 21.5828 19.2545C21.5894 19.2618 21.5884 19.2736 21.5862 19.297L21.4962 20.2846C21.4521 20.768 21.4301 21.0096 21.492 21.2003C21.5745 21.4545 21.7589 21.6564 22.0045 21.7617C22.1887 21.8407 22.4314 21.8407 22.9168 21.8407C23.4021 21.8407 23.6448 21.8407 23.8434 21.7617C24.1083 21.6564 24.3295 21.4545 24.4584 21.2003C24.5551 21.0096 24.5771 20.768 24.6212 20.2846L24.7112 19.297C24.7134 19.2736 24.7144 19.2618 24.7224 19.2545C24.7304 19.2472 24.7422 19.2472 24.7658 19.2472H25.7574C26.2428 19.2472 26.4855 19.2472 26.6841 19.1683C26.9489 19.063 27.1701 18.861 27.299 18.6069C27.3957 18.4162 27.4177 18.1746 27.4618 17.6912C27.5059 17.2078 27.5279 16.9662 27.466 16.7755C27.3835 16.5214 27.1991 16.3194 26.9535 16.2141C26.7692 16.1352 26.5265 16.1352 26.0412 16.1352H25.0495C25.026 16.1352 25.0142 16.1352 25.0075 16.1279C25.0009 16.1206 25.0019 16.1088 25.0041 16.0854L25.0941 15.0978C25.1382 14.6144 25.1602 14.3728 25.0983 14.1821C25.0158 13.9279 24.8314 13.726 24.5858 13.6207C24.4015 13.5417 24.1589 13.5417 23.6735 13.5417C23.1881 13.5417 22.9455 13.5417 22.7468 13.6207C22.482 13.726 22.2608 13.9279 22.1319 14.1821Z" stroke="#F4FBFF" stroke-width="2"/>
</svg>
