<svg width="57" height="57" viewBox="0 0 57 57" fill="none" xmlns="http://www.w3.org/2000/svg">
<rect width="57" height="57" rx="28.5" fill="#F4FBFF"/>
<path fill-rule="evenodd" clip-rule="evenodd" d="M37.6484 19.5424C38.5128 19.1843 39.4393 19 40.375 19C41.3107 19 42.2372 19.1843 43.1016 19.5424C43.9661 19.9004 44.7515 20.4252 45.4131 21.0869C46.0748 21.7485 46.5996 22.5339 46.9576 23.3984C47.3157 24.2628 47.5 25.1893 47.5 26.125C47.5 27.4367 46.4367 28.5 45.125 28.5C43.8133 28.5 42.75 27.4367 42.75 26.125C42.75 25.8131 42.6886 25.5043 42.5692 25.2161C42.4499 24.928 42.2749 24.6662 42.0544 24.4456C41.8338 24.2251 41.572 24.0501 41.2839 23.9308C40.9957 23.8114 40.6869 23.75 40.375 23.75C40.0631 23.75 39.7543 23.8114 39.4661 23.9308C39.178 24.0501 38.9162 24.2251 38.6956 24.4456C38.4751 24.6662 38.3001 24.928 38.1808 25.2161C38.0614 25.5043 38 25.8131 38 26.125C38 27.4367 36.9367 28.5 35.625 28.5C34.3133 28.5 33.25 27.4367 33.25 26.125C33.25 25.1893 33.4343 24.2628 33.7924 23.3984C34.1504 22.5339 34.6752 21.7485 35.3369 21.0869C35.9985 20.4252 36.7839 19.9004 37.6484 19.5424Z" fill="#808080" fill-opacity="0.7"/>
<path fill-rule="evenodd" clip-rule="evenodd" d="M40.5853 34.0294C41.8523 34.3689 42.6042 35.6712 42.2647 36.9382C41.4528 39.9682 39.6638 42.6456 37.1751 44.5553C34.6864 46.4649 31.6372 47.5 28.5003 47.5C25.3633 47.5 22.3141 46.4649 19.8254 44.5553C17.3367 42.6456 15.5477 39.9682 14.7358 36.9382C14.3963 35.6712 15.1482 34.3689 16.4152 34.0294C17.6822 33.6899 18.9845 34.4418 19.324 35.7088C19.8652 37.7288 21.0579 39.5138 22.717 40.7868C24.3761 42.0599 26.409 42.75 28.5003 42.75C30.5915 42.75 32.6244 42.0599 34.2835 40.7868C35.9426 39.5138 37.1353 37.7288 37.6766 35.7088C38.016 34.4418 39.3183 33.6899 40.5853 34.0294Z" fill="#808080" fill-opacity="0.7"/>
<path fill-rule="evenodd" clip-rule="evenodd" d="M13.8984 19.5424C14.7628 19.1843 15.6893 19 16.625 19C17.5607 19 18.4872 19.1843 19.3516 19.5424C20.2161 19.9004 21.0015 20.4252 21.6631 21.0869C22.3248 21.7485 22.8496 22.5339 23.2076 23.3984C23.5657 24.2628 23.75 25.1893 23.75 26.125C23.75 27.4367 22.6867 28.5 21.375 28.5C20.0633 28.5 19 27.4367 19 26.125C19 25.8131 18.9386 25.5043 18.8192 25.2161C18.6999 24.928 18.5249 24.6662 18.3044 24.4456C18.0838 24.2251 17.822 24.0501 17.5339 23.9308C17.2457 23.8114 16.9369 23.75 16.625 23.75C16.3131 23.75 16.0043 23.8114 15.7161 23.9308C15.428 24.0501 15.1662 24.2251 14.9456 24.4456C14.7251 24.6662 14.5501 24.928 14.4308 25.2161C14.3114 25.5043 14.25 25.8131 14.25 26.125C14.25 27.4367 13.1867 28.5 11.875 28.5C10.5633 28.5 9.5 27.4367 9.5 26.125C9.5 25.1893 9.68429 24.2628 10.0424 23.3984C10.4004 22.5339 10.9252 21.7485 11.5869 21.0869C12.2485 20.4252 13.0339 19.9004 13.8984 19.5424Z" fill="#808080" fill-opacity="0.7"/>
</svg>
