<svg width="18" height="16" viewBox="0 0 18 16" fill="none" xmlns="http://www.w3.org/2000/svg">
<path d="M0.773926 6.90911V3.72729C0.773926 2.07044 2.11707 0.727295 3.77393 0.727295H5.51335C7.17021 0.727295 8.51335 2.07044 8.51335 3.72729V12.2727C8.51335 13.9296 7.17021 15.2727 5.51335 15.2727H3.77393C2.11707 15.2727 0.773926 13.9296 0.773926 12.2727V9.09093" stroke="#F4FBFF" stroke-width="1.3" stroke-linecap="round"/>
<path d="M10.5312 1.66578C11.2546 1.54329 12.0278 1.74473 12.5869 2.27008L14.7759 4.32712C15.6826 5.17917 15.6826 6.56062 14.7759 7.41268L10.5312 11.4014" stroke="#F4FBFF" stroke-width="1.3" stroke-linecap="round"/>
<path d="M10.061 15.2727H13.9307C15.2131 15.2727 16.2526 14.2959 16.2526 13.0909V10.1818C16.2526 9.92679 16.206 9.682 16.1205 9.45453" stroke="#F4FBFF" stroke-width="1.3" stroke-linecap="round"/>
<ellipse cx="4.64357" cy="12.3636" rx="0.773943" ry="0.727273" fill="#F4FBFF"/>
</svg>
