<svg width="133" height="44" viewBox="0 0 133 44" fill="none" xmlns="http://www.w3.org/2000/svg">
<path d="M41.4006 13.328C41.388 12.6743 41.1193 12.0966 40.6994 11.6249C40.4496 11.343 40.1473 11.1012 39.8156 10.9033L22.5256 0.606605C21.4382 -0.0410594 20.3759 -0.268941 19.2213 0.418702L1.39185 11.0372C1.12523 11.1951 0.894308 11.395 0.699072 11.6249C0.249818 12.1526 0 12.8323 0 13.5199V15.4549V30.4351V32.644C0 32.686 0.00419863 32.7259 0.00629794 32.7679C0.00629794 32.7699 0.00629794 32.7719 0.00629794 32.7739C0.0776746 33.8074 0.978281 34.625 2.08042 34.625H9.491V41.6273C9.491 42.6508 10.3622 43.4824 11.4392 43.4824H13.8471V43.4784L37.7583 43.4824C39.5868 43.4824 41.3838 42.221 41.3859 40.328L41.3985 15.4549V13.382C41.3985 13.364 41.3985 13.346 41.3985 13.33L41.4006 13.328ZM26.0861 24.0145C27.0476 24.5642 28.4688 25.9395 28.1077 27.6206C27.818 28.9699 26.485 30.0453 24.8097 30.2192L14.3257 30.2772L14.3908 20.3484C14.3992 19.189 14.9345 18.2375 15.9422 17.5978C16.6413 17.152 17.8442 16.9022 18.9505 17.3459C19.1415 17.4239 19.5047 17.5898 19.891 17.9376C21.8644 19.7147 21.5327 23.5267 21.5327 23.5267C21.5327 23.5167 24.2261 22.949 26.0882 24.0165L26.0861 24.0145ZM37.7184 39.9322L22.5571 39.9382L14.3656 39.9482V34.6789L24.4612 34.6369C27.1042 34.625 29.2393 33.6655 30.8074 31.7824C32.1909 30.1213 32.7283 27.8505 32.2434 25.7076C31.5401 22.6012 28.7732 20.3484 25.3576 20.1025L25.2652 20.0965L25.2569 20.0085C25.0196 17.4119 23.6698 15.3849 21.35 14.1456C18.2913 12.5124 15.1088 13.6718 14.8275 13.7758C12.5392 14.6233 11.1579 16.3404 10.5134 17.6698C9.67994 19.3869 9.62116 21.3878 9.58337 22.7031C9.57078 23.1089 9.58337 23.3948 9.58337 23.6806V30.3092H3.69689L3.6885 13.7998L7.3392 11.6249L20.7118 3.65502L28.0951 8.03475L34.1076 11.6249L37.7247 13.7838V39.9302L37.7184 39.9322Z" fill="#F4FBFF"/>
<path d="M123.542 29.624H118.861C118.798 29.2202 118.743 28.8504 118.701 28.5166C118.659 28.1827 118.638 27.8349 118.638 27.4711C118.638 27.1273 118.659 26.7795 118.701 26.4256C118.743 26.0718 118.798 25.694 118.861 25.2882H123.542V20.4667C123.945 20.3868 124.327 20.3248 124.688 20.2848C125.049 20.2448 125.421 20.2249 125.803 20.2249C126.164 20.2249 126.53 20.2448 126.901 20.2848C127.273 20.3248 127.669 20.3868 128.096 20.4667V25.2882H132.746C132.83 25.692 132.895 26.0658 132.937 26.4096C132.979 26.7535 133 27.0973 133 27.4411C133 27.7849 132.979 28.1348 132.937 28.4866C132.895 28.8404 132.83 29.2202 132.746 29.624H128.096V34.4455C127.672 34.5274 127.279 34.5874 126.918 34.6274C126.557 34.6674 126.196 34.6874 125.835 34.6874C125.154 34.6874 124.39 34.6074 123.542 34.4455V29.624Z" fill="#CBDD98"/>
<path d="M59.3055 30.5697C59.6666 31.1154 59.9521 31.7271 60.1662 32.4048C60.3782 33.0824 60.4853 33.856 60.4853 34.7256C59.5091 35.0894 58.6169 35.3213 57.8108 35.4232C57.0047 35.5251 56.1964 35.5751 55.3903 35.5751C54.032 35.5751 52.8312 35.3832 51.7921 34.9994C50.7508 34.6156 49.8754 34.0639 49.1658 33.3463C48.4541 32.6286 47.9188 31.7691 47.5577 30.7696C47.1967 29.7681 47.0161 28.6427 47.0161 27.3894C47.0161 26.136 47.1967 25.0646 47.5577 24.0531C47.9188 23.0416 48.4499 22.1781 49.1511 21.4604C49.8523 20.7428 50.7109 20.1811 51.7312 19.7773C52.7493 19.3735 53.9187 19.1716 55.2349 19.1716C55.68 19.1716 56.1061 19.1816 56.5092 19.2016C56.9123 19.2216 57.3111 19.2616 57.7037 19.3236C58.0963 19.3835 58.4994 19.4755 58.9129 19.5974C59.3265 19.7193 59.7883 19.8713 60.2985 20.0532C60.3405 20.7408 60.2775 21.4225 60.1074 22.1001C59.9374 22.7778 59.6729 23.4394 59.3118 24.0871C58.9507 23.9651 58.6274 23.8692 58.3398 23.7992C58.0522 23.7293 57.7835 23.6733 57.5274 23.6333C57.2734 23.5933 57.0235 23.5673 56.7779 23.5574C56.5344 23.5474 56.2741 23.5414 55.997 23.5414C54.9788 23.5414 54.1349 23.8292 53.4652 24.4049C52.7955 24.9806 52.4617 25.9781 52.4617 27.3914C52.4617 28.139 52.5625 28.7607 52.764 29.2564C52.9656 29.7521 53.2301 30.1419 53.5597 30.4238C53.8893 30.7076 54.2713 30.9095 54.7059 31.0295C55.1405 31.1514 55.6023 31.2114 56.0914 31.2114C56.7065 31.2114 57.244 31.1614 57.6995 31.0595C58.1551 30.9575 58.6925 30.7976 59.3076 30.5737L59.3055 30.5697Z" fill="#F4FBFF"/>
<path d="M62.6496 19.5311C63.1156 19.4292 63.5775 19.3592 64.0351 19.3192C64.4907 19.2793 64.9315 19.2593 65.3577 19.2593C65.7838 19.2593 66.1953 19.2793 66.6634 19.3192C67.1295 19.3592 67.5871 19.4312 68.0322 19.5311V27.9608C68.0322 29.1741 68.2442 30.0037 68.6683 30.4475C69.0924 30.8932 69.741 31.1151 70.6102 31.1151C70.9712 31.1151 71.2463 31.1051 71.4373 31.0851C71.6283 31.0652 71.7669 31.0452 71.8509 31.0252V19.5331C72.3169 19.4312 72.7787 19.3612 73.2364 19.3212C73.6919 19.2813 74.1328 19.2613 74.559 19.2613C74.9851 19.2613 75.3966 19.2813 75.8647 19.3212C76.3308 19.3612 76.7884 19.4332 77.2335 19.5331V34.4834C76.8724 34.6053 76.4421 34.7253 75.9445 34.8472C75.4449 34.9691 74.9138 35.0851 74.3511 35.195C73.7885 35.307 73.2091 35.3929 72.615 35.4529C72.0209 35.5128 71.4373 35.5448 70.8642 35.5448C69.7809 35.5448 68.7418 35.4629 67.7425 35.303C66.7453 35.141 65.8678 34.8132 65.1163 34.3175C64.3626 33.8217 63.7622 33.1041 63.3171 32.1646C62.8721 31.2251 62.6475 29.9657 62.6475 28.3885V19.5331L62.6496 19.5311Z" fill="#F4FBFF"/>
<path d="M80.8003 19.5311C81.2663 19.4292 81.7282 19.3592 82.1858 19.3192C82.6414 19.2793 83.0822 19.2593 83.5084 19.2593C83.9115 19.2593 84.346 19.2793 84.8142 19.3192C85.2802 19.3592 85.7379 19.4312 86.1829 19.5311V35.179C85.6308 35.259 85.1312 35.3209 84.6861 35.3609C84.2411 35.4009 83.8359 35.4209 83.4769 35.4209C83.1179 35.4209 82.7128 35.4009 82.2677 35.3609C81.8227 35.3209 81.3335 35.259 80.8024 35.179V19.5311H80.8003Z" fill="#F4FBFF"/>
<path d="M89.7495 19.5911C90.6417 19.4892 91.5864 19.3932 92.5836 19.3033C93.5808 19.2113 94.515 19.1674 95.3862 19.1674C97.1055 19.1674 98.575 19.3593 99.7968 19.7431C101.017 20.1269 102.02 20.6686 102.807 21.3662C103.592 22.0639 104.166 22.9074 104.527 23.8989C104.888 24.8904 105.068 25.9918 105.068 27.2052C105.068 28.4785 104.881 29.6319 104.512 30.6614C104.14 31.6929 103.557 32.5724 102.761 33.3C101.965 34.0276 100.935 34.5894 99.673 34.9832C98.4092 35.3769 96.8872 35.5748 95.1028 35.5748C94.0615 35.5748 93.1336 35.5389 92.317 35.4689C91.5003 35.3969 90.6459 35.303 89.7537 35.1811V19.5951L89.7495 19.5911ZM95.1322 31.2351C95.2161 31.2351 95.3274 31.2451 95.4659 31.2651C95.6045 31.2851 95.8102 31.2951 96.0873 31.2951C97.2756 31.2951 98.1615 30.9772 98.7472 30.3396C99.3308 29.7019 99.6226 28.6564 99.6226 27.2012C99.6226 25.9079 99.335 24.9624 98.7619 24.3667C98.1888 23.771 97.3721 23.4731 96.3099 23.4731C96.0559 23.4731 95.8207 23.4831 95.6087 23.5031C95.3967 23.5231 95.2371 23.5431 95.1301 23.5631V31.2351H95.1322Z" fill="#F4FBFF"/>
<path d="M116.151 25.0503C116.13 24.6864 116.023 24.3826 115.832 24.1407C115.641 23.8989 115.397 23.711 115.099 23.579C114.801 23.4471 114.473 23.3571 114.112 23.3052C113.751 23.2552 113.38 23.2292 112.998 23.2292C112.488 23.2292 111.893 23.2852 111.213 23.3951C110.533 23.5071 109.832 23.683 109.112 23.9268C108.921 23.583 108.757 23.2692 108.618 22.9873C108.48 22.7035 108.375 22.4156 108.299 22.1238C108.224 21.8319 108.171 21.5281 108.14 21.2143C108.108 20.9004 108.092 20.5426 108.092 20.1388C109.11 19.815 110.124 19.5731 111.133 19.4112C112.141 19.2493 113.05 19.1693 113.856 19.1693C114.96 19.1693 115.958 19.2952 116.85 19.5491C117.742 19.803 118.5 20.1908 119.128 20.7165C119.753 21.2422 120.236 21.9139 120.576 22.7335C120.916 23.553 121.086 24.5285 121.086 25.6599V34.5453C120.28 34.7672 119.302 34.9911 118.156 35.213C117.009 35.4349 115.798 35.5468 114.526 35.5468C113.422 35.5468 112.408 35.4509 111.484 35.259C110.56 35.0671 109.769 34.7592 109.112 34.3334C108.453 33.9097 107.938 33.348 107.567 32.6503C107.195 31.9527 107.008 31.0991 107.008 30.0876C107.008 29.0762 107.231 28.2786 107.678 27.6309C108.123 26.9833 108.696 26.4695 109.397 26.0837C110.098 25.6999 110.873 25.4321 111.721 25.2801C112.569 25.1282 113.399 25.0523 114.205 25.0523H116.147L116.151 25.0503ZM116.151 28.2646H114.335C113.592 28.2646 112.966 28.4165 112.456 28.7204C111.946 29.0242 111.692 29.448 111.692 29.9937C111.692 30.3975 111.788 30.7173 111.979 30.9492C112.171 31.1811 112.41 31.359 112.695 31.4809C112.983 31.6029 113.289 31.6828 113.619 31.7228C113.949 31.7628 114.251 31.7828 114.526 31.7828C114.717 31.7828 114.992 31.7628 115.353 31.7228C115.714 31.6828 115.979 31.6428 116.149 31.6009V28.2646H116.151Z" fill="#F4FBFF"/>
</svg>
