<svg width="10" height="14" viewBox="0 0 10 14" fill="none" xmlns="http://www.w3.org/2000/svg">
<path d="M8.87109 0.149658C9.31612 0.149662 9.72384 0.466579 9.72754 0.938721L9.73633 1.99536C9.73939 2.40284 9.49457 2.72877 9.12305 2.84692V3.45532C9.51023 3.721 9.73718 4.138 9.73633 4.61548L9.73242 6.24731L9.72363 6.32446C9.68524 6.49377 9.52345 6.588 9.37891 6.5813C9.20141 6.57297 9.05859 6.42884 9.05859 6.23071L9.05664 4.60571C9.05643 4.45554 9.02319 4.34918 8.97949 4.26978C8.93522 4.18944 8.87492 4.12883 8.80859 4.07642C8.77513 4.04998 8.74115 4.02599 8.70605 4.0022C8.67283 3.97968 8.63507 3.95452 8.60254 3.92993C8.54502 3.88639 8.44754 3.80471 8.44629 3.6731L8.44043 2.88599L8.22363 2.88208C8.0214 2.87791 7.88898 2.72159 7.88379 2.55493C7.88108 2.46459 7.91103 2.37635 7.97461 2.30981C8.03882 2.2428 8.12816 2.20727 8.22461 2.2063L8.89844 2.19946C8.98307 2.19854 9.05664 2.13049 9.05664 2.00806V1.02661C9.05664 0.975131 9.0389 0.920704 9.00977 0.883057C8.98317 0.848776 8.94893 0.829407 8.90332 0.829346H0.984375C0.90657 0.829558 0.836381 0.907291 0.835938 0.985596L0.832031 2.01294C0.832026 2.05637 0.847443 2.10811 0.875 2.14575C0.899619 2.17922 0.931228 2.19939 0.977539 2.19946H0.978516L6.07227 2.2229H6.07129C6.1659 2.2229 6.2627 2.24686 6.33691 2.31274C6.41425 2.38147 6.44653 2.47754 6.44434 2.57642C6.44006 2.7694 6.27079 2.90441 6.07129 2.90454H6.07031L1.44922 2.88501L1.44531 3.63403C1.44455 3.7767 1.37467 3.90027 1.24121 3.96509C0.988004 4.08856 0.831217 4.31542 0.831055 4.6106L0.833008 12.0793C0.833008 12.4632 1.12838 12.7705 1.50586 12.7708H8.37988C8.75847 12.7708 9.05337 12.462 9.05371 12.0813L9.06055 7.94556C9.06063 7.85655 9.0817 7.76613 9.13965 7.69458C9.20014 7.61998 9.28633 7.58289 9.37793 7.57837H9.37891C9.4599 7.57437 9.54942 7.59653 9.62109 7.65552C9.69635 7.71768 9.73828 7.81039 9.73828 7.91821L9.73438 12.0725C9.73438 12.8174 9.15726 13.4509 8.38281 13.4504H1.50488C0.702259 13.4493 0.149545 12.7912 0.149414 12.0354L0.152344 4.61938C0.152405 4.13193 0.373858 3.72273 0.764648 3.45532V2.84692C0.409718 2.73295 0.15332 2.42929 0.15332 2.02954V1.0061C0.15283 0.523293 0.522104 0.149714 1.0166 0.149658H8.87109Z" fill="#2E2E48" stroke="#2E2E48" stroke-width="0.3"/>
<path d="M3.0855 7.72876L6.7998 7.72876" stroke="#2E2E48" stroke-linecap="round" stroke-linejoin="round"/>
<path d="M4.94287 5.87139L4.94287 9.58569" stroke="#2E2E48" stroke-linecap="round" stroke-linejoin="round"/>
</svg>
