<svg width="57" height="57" viewBox="0 0 57 57" fill="none" xmlns="http://www.w3.org/2000/svg">
<rect width="57" height="57" rx="28.5" fill="#F4FBFF" fill-opacity="0.6"/>
<path fill-rule="evenodd" clip-rule="evenodd" d="M42.75 16.625C44.0617 16.625 45.125 17.6883 45.125 19L45.125 26.125C45.125 27.4367 44.0617 28.5 42.75 28.5C41.4383 28.5 40.375 27.4367 40.375 26.125L40.375 19C40.375 17.6883 41.4383 16.625 42.75 16.625Z" fill="#808080" fill-opacity="0.6"/>
<path fill-rule="evenodd" clip-rule="evenodd" d="M14.25 16.625C15.5617 16.625 16.625 17.6883 16.625 19L16.625 26.125C16.625 27.4367 15.5617 28.5 14.25 28.5C12.9383 28.5 11.875 27.4367 11.875 26.125L11.875 19C11.875 17.6883 12.9383 16.625 14.25 16.625Z" fill="#808080" fill-opacity="0.6"/>
<path fill-rule="evenodd" clip-rule="evenodd" d="M11.875 38C11.875 36.6883 12.9383 35.625 14.25 35.625H42.75C44.0617 35.625 45.125 36.6883 45.125 38C45.125 39.3117 44.0617 40.375 42.75 40.375H14.25C12.9383 40.375 11.875 39.3117 11.875 38Z" fill="#808080" fill-opacity="0.6"/>
</svg>
