<svg width="14" height="10" viewBox="0 0 14 10" fill="none" xmlns="http://www.w3.org/2000/svg">
<path d="M4.59953 2.54985C4.59953 3.68194 5.51727 4.59969 6.64937 4.59969C7.78147 4.59969 8.69922 3.68194 8.69922 2.54985C8.69922 1.41775 7.78147 0.5 6.64937 0.5" stroke="#2E2E48" stroke-linecap="round"/>
<path d="M3.06201 7.641C3.06201 7.2001 3.33918 6.8068 3.75439 6.65851C5.62639 5.98994 7.67209 5.98994 9.54409 6.65851C9.95931 6.8068 10.2365 7.2001 10.2365 7.641V8.31515C10.2365 8.92367 9.69751 9.3911 9.09511 9.30504L8.89427 9.27635C7.40514 9.06362 5.89334 9.06362 4.40422 9.27635L4.20337 9.30504C3.60097 9.3911 3.06201 8.92366 3.06201 8.31515V7.641Z" stroke="#2E2E48"/>
<path d="M9.72437 4.65637C10.6139 4.65637 11.335 3.93528 11.335 3.04577C11.335 2.15627 10.6139 1.43518 9.72437 1.43518" stroke="#2E2E48" stroke-linecap="round"/>
<path d="M11.4882 8.33085L11.646 8.35339C12.1193 8.42101 12.5428 8.05374 12.5428 7.57562V7.04593C12.5428 6.69951 12.325 6.39048 11.9987 6.27397C11.6733 6.15775 11.3412 6.06724 11.0054 6.00244" stroke="#2E2E48" stroke-linecap="round"/>
<path d="M3.3186 4.65637C2.42909 4.65637 1.70801 3.93528 1.70801 3.04577C1.70801 2.15627 2.42909 1.43518 3.3186 1.43518" stroke="#2E2E48" stroke-linecap="round"/>
<path d="M1.5548 8.33085L1.397 8.35339C0.923681 8.42101 0.500213 8.05374 0.500213 7.57562V7.04593C0.500213 6.69951 0.717987 6.39048 1.04423 6.27397C1.36966 6.15775 1.70176 6.06724 2.0376 6.00244" stroke="#2E2E48" stroke-linecap="round"/>
</svg>
