<svg width="31" height="36" viewBox="0 0 31 36" fill="none" xmlns="http://www.w3.org/2000/svg">
<path d="M8.48224 2.66935C10.0843 1.61409 12.0027 1 14.0645 1C19.6765 1 24.2258 5.54937 24.2258 11.1613V14.6545C24.2258 16.4913 25.4095 18.0979 26.3503 19.6755C26.8449 20.5048 27.129 21.4741 27.129 22.5099C27.129 25.1857 25.2173 27.4814 22.5668 27.849C19.9348 28.2139 16.6459 28.581 14.0645 28.581C11.4831 28.581 8.19425 28.2139 5.5622 27.849C2.91175 27.4814 1 25.1857 1 22.5099C1 21.4741 1.28413 20.5048 1.7787 19.6755C2.71953 18.0978 3.90324 16.4913 3.90324 14.6545V11.1613C3.90324 9.77376 4.18134 8.45119 4.68485 7.24627" stroke="#2E2E48" stroke-width="2" stroke-linecap="round"/>
<path d="M17.6934 32.4407C16.9132 33.6141 15.5791 34.3874 14.0643 34.3874C12.5496 34.3874 11.2155 33.6141 10.4353 32.4407" stroke="#2E2E48" stroke-width="2" stroke-linecap="round"/>
</svg>
