<svg width="57" height="57" viewBox="0 0 57 57" fill="none" xmlns="http://www.w3.org/2000/svg">
<rect width="57" height="57" rx="28.5" fill="#F4FBFF" fill-opacity="0.6"/>
<path fill-rule="evenodd" clip-rule="evenodd" d="M19.8254 33.8197C22.3141 31.9101 25.3633 30.875 28.5003 30.875C31.6372 30.875 34.6864 31.9101 37.1751 33.8197C39.6638 35.7293 41.4528 38.4068 42.2647 41.4368C42.6042 42.7038 41.8523 44.0061 40.5853 44.3456C39.3183 44.6851 38.016 43.9332 37.6766 42.6662C37.1353 40.6462 35.9426 38.8612 34.2835 37.5881C32.6244 36.3151 30.5915 35.625 28.5003 35.625C26.409 35.625 24.3761 36.3151 22.717 37.5881C21.0579 38.8612 19.8652 40.6462 19.324 42.6662C18.9845 43.9332 17.6822 44.6851 16.4152 44.3456C15.1482 44.0061 14.3963 42.7038 14.7358 41.4368C15.5477 38.4068 17.3367 35.7293 19.8254 33.8197Z" fill="#808080" fill-opacity="0.6"/>
<path fill-rule="evenodd" clip-rule="evenodd" d="M14.25 16.625C15.5617 16.625 16.625 17.6883 16.625 19V26.125C16.625 27.4367 15.5617 28.5 14.25 28.5C12.9383 28.5 11.875 27.4367 11.875 26.125V19C11.875 17.6883 12.9383 16.625 14.25 16.625Z" fill="#808080" fill-opacity="0.6"/>
<path fill-rule="evenodd" clip-rule="evenodd" d="M42.75 16.625C44.0617 16.625 45.125 17.6883 45.125 19V26.125C45.125 27.4367 44.0617 28.5 42.75 28.5C41.4383 28.5 40.375 27.4367 40.375 26.125V19C40.375 17.6883 41.4383 16.625 42.75 16.625Z" fill="#808080" fill-opacity="0.6"/>
</svg>
